<svg width="30" height="30" viewBox="0 0 30 30" fill="none" xmlns="http://www.w3.org/2000/svg">
<circle cx="15" cy="15" r="15" fill="black"/>
<path d="M0.4 15C0.4 6.93641 6.93641 0.4 15 0.4C23.0636 0.4 29.6 6.93641 29.6 15C29.6 23.0636 23.0636 29.6 15 29.6C6.93641 29.6 0.4 23.0636 0.4 15ZM15 2.6C11.7113 2.6 8.55733 3.90643 6.23188 6.23188C3.90643 8.55733 2.6 11.7113 2.6 15C2.6 18.2887 3.90643 21.4427 6.23188 23.7681C8.55733 26.0936 11.7113 27.4 15 27.4C18.2887 27.4 21.4427 26.0936 23.7681 23.7681C26.0936 21.4427 27.4 18.2887 27.4 15C27.4 11.7113 26.0936 8.55733 23.7681 6.23188C21.4427 3.90643 18.2887 2.6 15 2.6Z" fill="white" stroke="white" stroke-width="0.8"/>
<path d="M13.5 13.9H13.9V13.5V7.5C13.9 7.20826 14.0159 6.92847 14.2222 6.72218C14.4285 6.51589 14.7083 6.4 15 6.4C15.2917 6.4 15.5715 6.51589 15.7778 6.72218C15.9841 6.92847 16.1 7.20826 16.1 7.5V13.5V13.9H16.5H22.5C22.7917 13.9 23.0715 14.0159 23.2778 14.2222C23.4841 14.4285 23.6 14.7083 23.6 15C23.6 15.2917 23.4841 15.5715 23.2778 15.7778C23.0715 15.9841 22.7917 16.1 22.5 16.1H16.5H16.1V16.5V22.5C16.1 22.7917 15.9841 23.0715 15.7778 23.2778C15.5715 23.4841 15.2917 23.6 15 23.6C14.7083 23.6 14.4285 23.4841 14.2222 23.2778C14.0159 23.0715 13.9 22.7917 13.9 22.5V16.5V16.1H13.5H7.5C7.20826 16.1 6.92847 15.9841 6.72218 15.7778C6.51589 15.5715 6.4 15.2917 6.4 15C6.4 14.7083 6.51589 14.4285 6.72218 14.2222C6.92847 14.0159 7.20826 13.9 7.5 13.9H13.5Z" fill="white" stroke="white" stroke-width="0.8"/>
</svg>
