<svg width="128" height="128" viewBox="0 0 128 128" fill="none" xmlns="http://www.w3.org/2000/svg">
<path d="M99.7868 104C95.3602 110.613 90.6668 117.067 83.5202 117.173C76.3735 117.333 74.0802 112.96 65.9735 112.96C57.8135 112.96 55.3068 117.067 48.5335 117.333C41.5468 117.6 36.2668 110.293 31.7868 103.84C22.6668 90.6667 15.6802 66.4 25.0668 50.08C29.7068 41.9733 38.0268 36.8533 47.0402 36.6933C53.8668 36.5867 60.3735 41.3333 64.5868 41.3333C68.7468 41.3333 76.6402 35.6267 84.9068 36.48C88.3735 36.64 98.0802 37.8667 104.32 47.04C103.84 47.36 92.7468 53.8667 92.8535 67.36C93.0135 83.4667 106.987 88.8533 107.147 88.9067C106.987 89.28 104.907 96.5867 99.7868 104ZM69.3335 18.6667C73.2268 14.24 79.6802 10.88 85.0135 10.6667C85.7068 16.9067 83.2002 23.2 79.4668 27.68C75.7868 32.2133 69.7068 35.7333 63.7335 35.2533C62.9335 29.12 65.9202 22.72 69.3335 18.6667Z" fill="black"/>
</svg>
