<svg width="455" height="150" viewBox="0 0 455 150" fill="none" xmlns="http://www.w3.org/2000/svg">
<rect x="1" y="1" width="453" height="148" rx="24" fill="#FDC801" stroke="black" stroke-width="2"/>
<path d="M137.484 100H132.406L147.094 60H152.094L166.781 100H161.703L149.75 66.3281H149.438L137.484 100ZM139.359 84.375H159.828V88.6719H139.359V84.375ZM172.387 111.25V70H176.84V74.7656H177.387C177.725 74.2448 178.194 73.5807 178.793 72.7734C179.405 71.9531 180.277 71.224 181.41 70.5859C182.556 69.9349 184.105 69.6094 186.059 69.6094C188.585 69.6094 190.811 70.2409 192.738 71.5039C194.665 72.7669 196.169 74.5573 197.25 76.875C198.331 79.1927 198.871 81.9271 198.871 85.0781C198.871 88.2552 198.331 91.0091 197.25 93.3398C196.169 95.6576 194.672 97.4544 192.758 98.7305C190.844 99.9935 188.637 100.625 186.137 100.625C184.21 100.625 182.667 100.306 181.508 99.668C180.349 99.0169 179.457 98.2812 178.832 97.4609C178.207 96.6276 177.725 95.9375 177.387 95.3906H176.996V111.25H172.387ZM176.918 85C176.918 87.2656 177.25 89.2643 177.914 90.9961C178.578 92.7148 179.548 94.0625 180.824 95.0391C182.1 96.0026 183.663 96.4844 185.512 96.4844C187.439 96.4844 189.047 95.9766 190.336 94.9609C191.638 93.9323 192.615 92.5521 193.266 90.8203C193.93 89.0755 194.262 87.1354 194.262 85C194.262 82.8906 193.936 80.9896 193.285 79.2969C192.647 77.5911 191.677 76.2435 190.375 75.2539C189.086 74.2513 187.465 73.75 185.512 73.75C183.637 73.75 182.061 74.2253 180.785 75.1758C179.509 76.1133 178.546 77.4284 177.895 79.1211C177.243 80.8008 176.918 82.7604 176.918 85ZM205.902 111.25V70H210.355V74.7656H210.902C211.241 74.2448 211.71 73.5807 212.309 72.7734C212.921 71.9531 213.793 71.224 214.926 70.5859C216.072 69.9349 217.621 69.6094 219.574 69.6094C222.1 69.6094 224.327 70.2409 226.254 71.5039C228.181 72.7669 229.685 74.5573 230.766 76.875C231.846 79.1927 232.387 81.9271 232.387 85.0781C232.387 88.2552 231.846 91.0091 230.766 93.3398C229.685 95.6576 228.188 97.4544 226.273 98.7305C224.359 99.9935 222.152 100.625 219.652 100.625C217.725 100.625 216.182 100.306 215.023 99.668C213.865 99.0169 212.973 98.2812 212.348 97.4609C211.723 96.6276 211.241 95.9375 210.902 95.3906H210.512V111.25H205.902ZM210.434 85C210.434 87.2656 210.766 89.2643 211.43 90.9961C212.094 92.7148 213.064 94.0625 214.34 95.0391C215.616 96.0026 217.178 96.4844 219.027 96.4844C220.954 96.4844 222.563 95.9766 223.852 94.9609C225.154 93.9323 226.13 92.5521 226.781 90.8203C227.445 89.0755 227.777 87.1354 227.777 85C227.777 82.8906 227.452 80.9896 226.801 79.2969C226.163 77.5911 225.193 76.2435 223.891 75.2539C222.602 74.2513 220.98 73.75 219.027 73.75C217.152 73.75 215.577 74.2253 214.301 75.1758C213.025 76.1133 212.061 77.4284 211.41 79.1211C210.759 80.8008 210.434 82.7604 210.434 85Z" fill="black"/>
<path d="M274.719 70C274.484 68.0208 273.534 66.4844 271.867 65.3906C270.201 64.2969 268.156 63.75 265.734 63.75C263.964 63.75 262.414 64.0365 261.086 64.6094C259.771 65.1823 258.742 65.9701 258 66.9727C257.271 67.9753 256.906 69.1146 256.906 70.3906C256.906 71.4583 257.16 72.3763 257.668 73.1445C258.189 73.8997 258.853 74.5312 259.66 75.0391C260.467 75.5339 261.314 75.944 262.199 76.2695C263.085 76.582 263.898 76.8359 264.641 77.0312L268.703 78.125C269.745 78.3984 270.904 78.776 272.18 79.2578C273.469 79.7396 274.699 80.3971 275.871 81.2305C277.056 82.0508 278.033 83.1055 278.801 84.3945C279.569 85.6836 279.953 87.2656 279.953 89.1406C279.953 91.3021 279.387 93.2552 278.254 95C277.134 96.7448 275.493 98.1315 273.332 99.1602C271.184 100.189 268.573 100.703 265.5 100.703C262.635 100.703 260.155 100.241 258.059 99.3164C255.975 98.3919 254.335 97.1029 253.137 95.4492C251.952 93.7956 251.281 91.875 251.125 89.6875H256.125C256.255 91.1979 256.763 92.4479 257.648 93.4375C258.547 94.4141 259.68 95.1432 261.047 95.625C262.427 96.0937 263.911 96.3281 265.5 96.3281C267.349 96.3281 269.009 96.0286 270.48 95.4297C271.952 94.8177 273.117 93.9714 273.977 92.8906C274.836 91.7969 275.266 90.5208 275.266 89.0625C275.266 87.7344 274.895 86.6536 274.152 85.8203C273.41 84.987 272.434 84.3099 271.223 83.7891C270.012 83.2682 268.703 82.8125 267.297 82.4219L262.375 81.0156C259.25 80.1172 256.776 78.8346 254.953 77.168C253.13 75.5013 252.219 73.3203 252.219 70.625C252.219 68.3854 252.824 66.4323 254.035 64.7656C255.259 63.0859 256.9 61.7839 258.957 60.8594C261.027 59.9219 263.339 59.4531 265.891 59.4531C268.469 59.4531 270.76 59.9154 272.766 60.8398C274.771 61.7513 276.359 63.0013 277.531 64.5898C278.716 66.1784 279.341 67.9818 279.406 70H274.719ZM300.339 70V73.9062H284.792V70H300.339ZM289.323 62.8125H293.933V91.4062C293.933 92.7083 294.121 93.6849 294.499 94.3359C294.89 94.974 295.384 95.4036 295.983 95.625C296.595 95.8333 297.24 95.9375 297.917 95.9375C298.425 95.9375 298.841 95.9115 299.167 95.8594C299.493 95.7943 299.753 95.7422 299.948 95.7031L300.886 99.8437C300.573 99.9609 300.137 100.078 299.577 100.195C299.017 100.326 298.308 100.391 297.448 100.391C296.146 100.391 294.87 100.111 293.62 99.5508C292.383 98.9909 291.354 98.138 290.534 96.9922C289.727 95.8464 289.323 94.401 289.323 92.6562V62.8125ZM319.138 100.625C316.429 100.625 314.053 99.9805 312.009 98.6914C309.978 97.4023 308.389 95.599 307.243 93.2812C306.11 90.9635 305.544 88.2552 305.544 85.1562C305.544 82.0312 306.11 79.3034 307.243 76.9727C308.389 74.6419 309.978 72.832 312.009 71.543C314.053 70.2539 316.429 69.6094 319.138 69.6094C321.846 69.6094 324.216 70.2539 326.247 71.543C328.291 72.832 329.88 74.6419 331.013 76.9727C332.159 79.3034 332.731 82.0312 332.731 85.1562C332.731 88.2552 332.159 90.9635 331.013 93.2812C329.88 95.599 328.291 97.4023 326.247 98.6914C324.216 99.9805 321.846 100.625 319.138 100.625ZM319.138 96.4844C321.195 96.4844 322.888 95.957 324.216 94.9023C325.544 93.8477 326.527 92.4609 327.165 90.7422C327.803 89.0234 328.122 87.1615 328.122 85.1562C328.122 83.151 327.803 81.2826 327.165 79.5508C326.527 77.819 325.544 76.4193 324.216 75.3516C322.888 74.2839 321.195 73.75 319.138 73.75C317.08 73.75 315.388 74.2839 314.06 75.3516C312.731 76.4193 311.748 77.819 311.11 79.5508C310.472 81.2826 310.153 83.151 310.153 85.1562C310.153 87.1615 310.472 89.0234 311.11 90.7422C311.748 92.4609 312.731 93.8477 314.06 94.9023C315.388 95.957 317.08 96.4844 319.138 96.4844ZM339.768 100V70H344.221V74.5312H344.533C345.08 73.0469 346.07 71.8424 347.502 70.918C348.934 69.9935 350.549 69.5312 352.346 69.5312C352.684 69.5312 353.107 69.5378 353.615 69.5508C354.123 69.5638 354.507 69.5833 354.768 69.6094V74.2969C354.611 74.2578 354.253 74.1992 353.693 74.1211C353.146 74.0299 352.567 73.9844 351.955 73.9844C350.497 73.9844 349.195 74.2904 348.049 74.9023C346.916 75.5013 346.018 76.3346 345.354 77.4023C344.702 78.457 344.377 79.6615 344.377 81.0156V100H339.768ZM371.896 100.625C369.006 100.625 366.512 99.987 364.416 98.7109C362.333 97.4219 360.725 95.625 359.592 93.3203C358.472 91.0026 357.912 88.3073 357.912 85.2344C357.912 82.1615 358.472 79.4531 359.592 77.1094C360.725 74.7526 362.3 72.9167 364.318 71.6016C366.35 70.2734 368.719 69.6094 371.428 69.6094C372.99 69.6094 374.533 69.8698 376.057 70.3906C377.58 70.9115 378.967 71.7578 380.217 72.9297C381.467 74.0885 382.463 75.625 383.205 77.5391C383.947 79.4531 384.318 81.8099 384.318 84.6094V86.5625H361.193V82.5781H379.631C379.631 80.8854 379.292 79.375 378.615 78.0469C377.951 76.7187 377.001 75.6706 375.764 74.9023C374.54 74.1341 373.094 73.75 371.428 73.75C369.592 73.75 368.003 74.2057 366.662 75.1172C365.334 76.0156 364.312 77.1875 363.596 78.6328C362.88 80.0781 362.521 81.6276 362.521 83.2812V85.9375C362.521 88.2031 362.912 90.1237 363.693 91.6992C364.488 93.2617 365.588 94.4531 366.994 95.2734C368.4 96.0807 370.035 96.4844 371.896 96.4844C373.107 96.4844 374.201 96.3151 375.178 95.9766C376.167 95.625 377.02 95.1042 377.736 94.4141C378.452 93.7109 379.006 92.8385 379.396 91.7969L383.85 93.0469C383.381 94.5573 382.593 95.8854 381.486 97.0312C380.38 98.1641 379.012 99.0495 377.385 99.6875C375.757 100.313 373.928 100.625 371.896 100.625Z" fill="black"/>
<path d="M84.366 77.7763C84.4679 88.7919 94.0304 92.4582 94.1359 92.505C94.055 92.7628 92.6084 97.7292 89.0986 102.858C86.0646 107.292 82.9152 111.71 77.9552 111.803C73.0814 111.892 71.514 108.912 65.9412 108.912C60.3701 108.912 58.6293 111.71 54.015 111.892C49.2267 112.074 45.5804 107.096 42.5213 102.679C36.2705 93.6412 31.4933 77.1406 37.9076 66.0025C41.0939 60.4712 46.7892 56.9691 52.9703 56.8789C57.6718 56.7892 62.1097 60.0417 64.9837 60.0417C67.856 60.0417 73.249 56.13 78.9185 56.7042C81.2921 56.8033 87.9543 57.6628 92.2322 63.9253C91.8882 64.1392 84.2834 68.5666 84.366 77.7763ZM75.206 50.7259C77.7478 47.6492 79.4588 43.3648 78.9923 39.1033C75.3279 39.2503 70.897 41.5449 68.2691 44.6205C65.9136 47.3433 63.8511 51.7027 64.4072 55.8798C68.4918 56.1962 72.6636 53.8044 75.206 50.7259Z" fill="black"/>
</svg>
