<svg width="230" height="230" viewBox="0 0 230 230" fill="none" xmlns="http://www.w3.org/2000/svg">
<circle cx="115" cy="115" r="107.5" fill="white" stroke="#FDC801" stroke-width="15"/>
<g filter="url(#filter0_i_2261_7693)">
<path d="M113.415 97.2766V135.667H105.715V110.697L95.4299 135.667H89.5999L79.2599 110.697V135.667H71.5599V97.2766H80.3049L92.5149 125.822L104.725 97.2766H113.415ZM127.133 101.567C125.776 101.567 124.639 101.145 123.723 100.302C122.843 99.4216 122.403 98.34 122.403 97.0566C122.403 95.7733 122.843 94.71 123.723 93.8666C124.639 92.9866 125.776 92.5466 127.133 92.5466C128.489 92.5466 129.608 92.9866 130.488 93.8666C131.404 94.71 131.863 95.7733 131.863 97.0566C131.863 98.34 131.404 99.4216 130.488 100.302C129.608 101.145 128.489 101.567 127.133 101.567ZM130.928 105.197V135.667H123.228V105.197L130.928 105.197ZM149.7 111.522V126.262C149.7 127.288 149.939 128.04 150.415 128.517C150.929 128.957 151.772 129.177 152.945 129.177H156.52V135.667H151.68C145.19 135.667 141.945 132.513 141.945 126.207V111.522H138.315V105.197H141.945V97.6616H149.7V105.197H156.52V111.522H149.7Z" fill="#2B2828"/>
</g>
<defs>
<filter id="filter0_i_2261_7693" x="71.5601" y="92.5466" width="84.9602" height="47.12" filterUnits="userSpaceOnUse" color-interpolation-filters="sRGB">
<feFlood flood-opacity="0" result="BackgroundImageFix"/>
<feBlend mode="normal" in="SourceGraphic" in2="BackgroundImageFix" result="shape"/>
<feColorMatrix in="SourceAlpha" type="matrix" values="0 0 0 0 0 0 0 0 0 0 0 0 0 0 0 0 0 0 127 0" result="hardAlpha"/>
<feOffset dy="4"/>
<feGaussianBlur stdDeviation="2"/>
<feComposite in2="hardAlpha" operator="arithmetic" k2="-1" k3="1"/>
<feColorMatrix type="matrix" values="0 0 0 0 0 0 0 0 0 0 0 0 0 0 0 0 0 0 0.25 0"/>
<feBlend mode="normal" in2="shape" result="effect1_innerShadow_2261_7693"/>
</filter>
</defs>
</svg>
