<svg width="60" height="57" viewBox="0 0 60 57" fill="none" xmlns="http://www.w3.org/2000/svg">
<path d="M10.3164 5.94474C10.3164 6.51771 10.6029 7.0523 11.0794 7.36968L15.0528 10.0192C15.593 10.3787 16.7137 10.8356 16.6331 11.4797L15.0369 17.7787C15.0107 17.9884 15.0238 18.2009 15.0743 18.4059L16.7923 25.276C16.844 25.4809 16.8567 25.6937 16.8297 25.9033L15.9731 32.7583C15.9469 32.968 15.96 33.1815 16.0105 33.3856L17.6461 39.9233C17.7491 40.3371 18.0019 40.6966 18.3577 40.9325L19.9774 42.013C20.3837 42.2845 20.6542 42.7142 20.7235 43.1963L20.4801 46.7521C20.4801 46.7521 20.2067 49.6619 22.6344 52.4163C24.1632 54.1521 27.9849 56.0536 30.3732 56.0536C33.5002 56.0536 35.9475 54.2392 37.2966 52.6401C38.1308 51.6496 39.6747 50.3014 40.3693 47.1865C40.5575 46.3421 40.2757 43.7262 40.2757 43.7262C40.2757 43.4941 40.6512 42.4989 40.7429 42.2854L41.9656 39.9373L42.0021 39.8624C42.5077 39.0545 42.7399 38.1042 42.8307 37.1549C42.8307 37.1549 43.677 32.4971 43.9148 30.9383C43.9195 30.9074 43.4467 25.7741 43.4514 25.7432L44.9026 19.3609C44.9394 19.144 44.9333 18.922 44.8848 18.7074L43.4467 12.2353C43.3499 11.7996 43.4269 11.3433 43.6614 10.9635C43.8959 10.5837 44.2693 10.3104 44.7022 10.2018L46.2395 9.81792C46.6211 9.72254 46.9583 9.49873 47.1945 9.18409L49.2954 6.38196C49.5182 6.08611 49.638 5.72566 49.638 5.35491V5.25193C49.638 4.15654 48.5941 4.18088 47.524 4.41869L41.7287 4.87463C41.3917 4.94953 41.0406 4.92144 40.7204 4.79318L36.6385 3.15946C36.5664 3.13119 36.4926 3.10743 36.4175 3.08831L29.525 1.36564C29.2091 1.28663 28.8772 1.2993 28.5682 1.40216L23.5388 3.07801C23.462 3.1036 23.3871 3.1348 23.3141 3.17163L20.1215 4.7679C19.832 4.91261 19.5074 4.97234 19.1853 4.94017L12.1992 4.24174C11.9611 4.21808 11.7208 4.24453 11.4936 4.31938C11.2664 4.39423 11.0574 4.51582 10.88 4.67633C10.7027 4.83684 10.5609 5.03271 10.4638 5.25133C10.3668 5.46995 10.3165 5.70647 10.3164 5.94568V5.94474Z" fill="#FDC801"/>
<path d="M57.298 10.2088L53.9594 10.4354C53.8364 10.4441 53.7169 10.4682 53.6008 10.5075L46.9723 12.7732C46.9318 12.7874 46.8919 12.803 46.8525 12.82L44.3808 13.9247C44.2733 13.9742 44.1596 14.0088 44.0428 14.0277C42.7565 14.2393 34.5186 15.7944 34.6618 20.8294C34.6618 20.8294 34.2274 24.1998 36.4884 26.5853C38.2485 28.441 39.2877 30.936 38.8477 33.4573C38.5575 35.12 37.6755 36.7622 35.599 37.7574L38.3234 38.7142C38.726 38.8546 39.0415 39.172 39.1819 39.5736L40.5638 43.5245L42.1198 41.8655C43.1628 40.7477 43.9633 36.3661 43.9633 36.3661C44.4391 32.8997 44.4268 29.3837 43.9267 25.9206L45.1064 25.0172C45.2581 24.9011 45.4303 24.8177 45.6138 24.7709L50.8221 23.4462C50.9843 23.405 51.1341 23.3373 51.2715 23.243L55.2991 20.4708C55.4685 20.3539 55.6101 20.2011 55.7139 20.0233L58.149 15.8608C58.2442 15.6981 58.3056 15.5179 58.3297 15.3309L58.7838 11.7854C58.8101 11.5799 58.7906 11.3712 58.7266 11.1741C58.6626 10.9771 58.5557 10.7967 58.4136 10.6459C58.2715 10.4951 58.0977 10.3777 57.9048 10.3021C57.7119 10.2266 57.5047 10.1947 57.298 10.2088ZM2.70178 10.2088L6.04037 10.4354C6.1627 10.4441 6.28223 10.4682 6.39895 10.5075L13.0274 12.7732C13.0686 12.7869 13.1083 12.8025 13.1463 12.82L15.6189 13.9247C15.7285 13.9743 15.838 14.008 15.9569 14.0277C17.2433 14.2393 25.4812 15.7944 25.3379 20.8294C25.3379 20.8294 25.7723 24.1998 23.5104 26.5853C21.7503 28.441 20.7129 30.936 21.152 33.4573C21.4423 35.12 22.3242 36.7622 24.4008 37.7574L21.6763 38.7142C21.2738 38.8546 20.9582 39.172 20.8178 39.5736L19.435 43.5245L17.8799 41.8655C16.837 40.7477 15.9691 35.3981 15.9691 35.3981C15.6502 32.4327 15.8104 29.4352 16.4437 26.5207C16.5 26.2607 16.4812 25.99 16.3895 25.7402C16.2978 25.4904 16.1371 25.2718 15.926 25.1099L15.4897 24.7756C15.3159 24.6424 15.1132 24.5516 14.898 24.5107L9.22448 23.4396C9.03307 23.4032 8.85133 23.3273 8.69083 23.2168L4.70063 20.4708C4.53091 20.354 4.38899 20.2012 4.28494 20.0233L1.85075 15.8608C1.75556 15.6981 1.69411 15.5179 1.67005 15.3309L1.21598 11.7864C1.18962 11.5809 1.20914 11.3721 1.27315 11.175C1.33716 10.978 1.44406 10.7976 1.58615 10.6468C1.72824 10.496 1.902 10.3786 2.09491 10.3031C2.28781 10.2275 2.49508 10.1947 2.70178 10.2088Z" fill="white"/>
<path d="M21.8514 39.6246L21.2335 40.6835C20.5572 42.7142 20.3326 44.8681 20.5753 46.9946C20.6296 47.4711 20.8463 47.9145 21.189 48.25C21.5317 48.5856 21.9795 48.7929 22.4571 48.8371L22.5339 48.8437L28.6156 48.3615C29.785 48.2696 30.9605 48.2878 32.1265 48.4158L37.6746 49.0281C38.0259 49.067 38.3815 49.0274 38.7157 48.9121C39.0499 48.7968 39.3543 48.6087 39.6069 48.3615C40.0441 47.9349 40.3033 47.3585 40.3325 46.7484L40.3775 45.7934C40.4838 43.5564 40.0025 41.3305 38.9815 39.3372C38.7833 38.9495 38.4847 38.6221 38.1168 38.389C37.7489 38.156 37.3253 38.026 36.89 38.0124L28.8113 37.7568H25.101C23.7622 37.7568 22.5255 38.4693 21.8514 39.6246Z" fill="white"/>
<path d="M20.7672 23.7701C20.7672 23.7701 17.9135 23.5641 17.1823 22.8338C16.8311 22.4826 16.6338 22.0063 16.6338 21.5096C16.6338 21.0128 16.8311 20.5365 17.1823 20.1853C17.5336 19.834 18.0099 19.6367 18.5066 19.6367C19.0033 19.6367 19.4797 19.834 19.8309 20.1853C20.5612 20.9165 20.7672 23.7701 20.7672 23.7701Z" fill="#2B2828"/>
<path d="M14.6423 19.2521L16.5494 10.5939C16.5494 10.5939 9.35914 10.0069 10.4592 3.62365C10.4592 3.62365 19.7775 6.70571 22.4195 4.06368C22.4195 4.06368 28.2588 -2.17535 37.5818 4.02342C40.6928 6.09248 49.5421 3.58339 49.5421 3.58339C50.6431 9.9666 43.4519 10.5536 43.4519 10.5536L45.3599 19.2119M22.9401 37.7567H37.6632C37.9179 37.7567 38.1613 37.8634 38.3261 38.0572C39.119 38.9934 41.2696 42.127 40.2865 47.6975C40.2475 47.9288 40.163 48.15 40.038 48.3484C39.9129 48.5468 39.7498 48.7184 39.558 48.8534C39.3662 48.9883 39.1495 49.0839 38.9206 49.1346C38.6916 49.1853 38.4548 49.1901 38.224 49.1487C34.9697 48.5495 27.6222 47.4729 22.5328 48.8435C22.2898 48.9088 22.0355 48.921 21.7874 48.8792C21.5393 48.8373 21.303 48.7425 21.0949 48.6011C20.8867 48.4598 20.7114 48.2752 20.581 48.06C20.4506 47.8447 20.3682 47.6039 20.3392 47.354C20.0565 45.0031 20.0443 41.1486 22.2211 38.1152C22.3044 38.0033 22.4129 37.9124 22.5378 37.8501C22.6627 37.7878 22.8005 37.7558 22.9401 37.7567Z" stroke="#2B2828" stroke-width="1.5" stroke-linecap="round" stroke-linejoin="round"/>
<path d="M23.544 52.2374C23.544 52.2374 29.4872 59.6486 36.4574 52.5314M12.6744 13.5599C9.80578 11.7277 5.76502 9.26542 1.03144 10.431C1.03144 10.431 -0.3626 23.5654 15.4138 24.9594L16.5494 25.7833C16.5494 25.7833 14.4055 34.1326 17.731 40.8585" stroke="#2B2828" stroke-width="1.5" stroke-linecap="round" stroke-linejoin="round"/>
<path d="M39.2339 23.7258C39.2339 23.7258 42.0866 23.5199 42.8178 22.7896C42.9966 22.6169 43.1393 22.4103 43.2374 22.1818C43.3355 21.9534 43.3872 21.7077 43.3893 21.459C43.3915 21.2104 43.3441 20.9639 43.25 20.7337C43.1558 20.5036 43.0168 20.2946 42.841 20.1187C42.6652 19.9429 42.4561 19.8039 42.226 19.7097C41.9959 19.6156 41.7493 19.5682 41.5007 19.5704C41.2521 19.5725 41.0064 19.6242 40.7779 19.7223C40.5495 19.8205 40.3428 19.9631 40.1701 20.142C39.4399 20.8722 39.2339 23.7258 39.2339 23.7258Z" fill="#2B2828"/>
<path d="M47.5543 13.3763C50.408 11.6087 54.3598 9.25504 58.9688 10.3898C58.9688 10.3898 60.3638 23.5241 44.5884 24.9181L43.4518 25.742C43.4518 25.742 45.8279 33.2113 42.5024 39.9371" stroke="#2B2828" stroke-width="1.5" stroke-linecap="round" stroke-linejoin="round"/>
</svg>
