<svg width="23" height="89" viewBox="0 0 23 89" fill="none" xmlns="http://www.w3.org/2000/svg">
<path d="M7.5625 0.952393V16.9524L1.77962 34.9524L2.60519 40.2857L2.96875 42.9524L1 49.6191V82.9524H22V49.6191L20.0312 42.9524L20.3961 40.2857L21.2204 34.9524L15.4375 16.9524V0.952393H7.5625Z" fill="#E6E6E6"/>
<path d="M14.7812 4H8.21875C7.49388 4 6.90625 4.59695 6.90625 5.33333V8.66667C6.90625 9.40305 7.49388 10 8.21875 10H14.7812C15.5061 10 16.0937 9.40305 16.0937 8.66667V5.33333C16.0937 4.59695 15.5061 4 14.7812 4Z" fill="#BEBEB8"/>
<path d="M15.4375 8.66675V21.3334L21.3438 40.0001L20.0312 48.0001L22 54.6667V88.0001H16.75V56.0001C16.75 54.0001 15.4375 52.0001 15.4375 48.6667C15.4375 45.3334 18.0625 44.0001 18.0625 41.3334C18.0625 36.6667 11.5 24.6667 11.5 15.3334V8.66675H15.4375Z" fill="url(#paint0_linear_2880_5056)"/>
<path d="M11.5 4V10H14.7812C15.5084 10 16.0938 9.40533 16.0938 8.66667V5.33333C16.0938 4.59467 15.5084 4 14.7812 4H11.5Z" fill="#B7B5B5"/>
<path d="M11.5 41.3334C12.2249 41.3334 12.8125 40.7365 12.8125 40.0001C12.8125 39.2637 12.2249 38.6667 11.5 38.6667C10.7751 38.6667 10.1875 39.2637 10.1875 40.0001C10.1875 40.7365 10.7751 41.3334 11.5 41.3334Z" fill="#605858"/>
<path d="M11.5 46.6667C12.2249 46.6667 12.8125 46.0697 12.8125 45.3333C12.8125 44.597 12.2249 44 11.5 44C10.7751 44 10.1875 44.597 10.1875 45.3333C10.1875 46.0697 10.7751 46.6667 11.5 46.6667Z" fill="#605858"/>
<path d="M14.7818 43.9999C15.4342 43.9999 15.9631 43.403 15.9631 42.6666C15.9631 41.9302 15.4342 41.3333 14.7818 41.3333C14.1295 41.3333 13.6006 41.9302 13.6006 42.6666C13.6006 43.403 14.1295 43.9999 14.7818 43.9999Z" fill="#605858"/>
<path d="M8.21934 43.9999C8.87172 43.9999 9.40059 43.403 9.40059 42.6666C9.40059 41.9302 8.87172 41.3333 8.21934 41.3333C7.56695 41.3333 7.03809 41.9302 7.03809 42.6666C7.03809 43.403 7.56695 43.9999 8.21934 43.9999Z" fill="#605858"/>
<path d="M17.4062 41.3334C17.9499 41.3334 18.3906 40.7365 18.3906 40.0001C18.3906 39.2637 17.9499 38.6667 17.4062 38.6667C16.8626 38.6667 16.4219 39.2637 16.4219 40.0001C16.4219 40.7365 16.8626 41.3334 17.4062 41.3334Z" fill="#605858"/>
<path d="M17.4062 46.6667C17.9499 46.6667 18.3906 46.0697 18.3906 45.3333C18.3906 44.597 17.9499 44 17.4062 44C16.8626 44 16.4219 44.597 16.4219 45.3333C16.4219 46.0697 16.8626 46.6667 17.4062 46.6667Z" fill="#605858"/>
<path d="M5.59375 41.3334C6.13741 41.3334 6.57812 40.7365 6.57812 40.0001C6.57812 39.2637 6.13741 38.6667 5.59375 38.6667C5.05009 38.6667 4.60938 39.2637 4.60938 40.0001C4.60938 40.7365 5.05009 41.3334 5.59375 41.3334Z" fill="#605858"/>
<path d="M5.59375 46.6667C6.13741 46.6667 6.57812 46.0697 6.57812 45.3333C6.57812 44.597 6.13741 44 5.59375 44C5.05009 44 4.60938 44.597 4.60938 45.3333C4.60938 46.0697 5.05009 46.6667 5.59375 46.6667Z" fill="#605858"/>
<path d="M8.21875 8.66675H14.7812M5.59375 56.6667H17.4062M14.125 13.3334V15.3334C14.125 21.3334 21.3437 36.6667 21.3437 41.3334C21.3437 44.0001 20.0312 45.3334 20.0312 48.0001C20.0312 50.6667 22 52.0001 22 56.0001V88.0001H1V56.0001C1 52.0001 2.96875 50.6667 2.96875 48.0001C2.96875 45.3334 1.65625 44.0001 1.65625 41.3334C1.65625 36.6667 8.875 21.3334 8.875 15.3334V13.3334" stroke="#605858" stroke-width="0.5" stroke-linecap="round" stroke-linejoin="round"/>
<defs>
<linearGradient id="paint0_linear_2880_5056" x1="16.75" y1="8.66675" x2="16.75" y2="88.0001" gradientUnits="userSpaceOnUse">
<stop stop-color="#52D17C"/>
<stop offset="1" stop-color="#22918B"/>
</linearGradient>
</defs>
</svg>
