<svg width="550" height="553" viewBox="0 0 550 553" fill="none" xmlns="http://www.w3.org/2000/svg">
<path d="M524.999 100.545H427.033V25.1364C427.033 11.3114 415.729 0 401.913 0C388.098 0 376.794 11.3114 376.794 25.1364V100.545H278.827C264.007 100.545 252.452 113.365 253.708 128.195L256.722 158.61C349.162 179.976 427.033 245.582 427.033 351.909L427.535 553H470.239C491.339 553 508.672 536.661 511.183 516.05L549.868 128.195C551.375 113.365 539.82 100.545 524.999 100.545ZM351.674 502.727H25.1196C11.3038 502.727 0 514.039 0 527.864C0 541.689 11.3038 553 25.1196 553H351.674C365.49 553 376.794 541.689 376.794 527.864C376.794 514.039 365.49 502.727 351.674 502.727ZM27.6315 351.909H349.162C364.736 351.909 377.045 337.833 374.031 322.751C357.703 241.56 273.05 200.84 188.397 200.84C103.744 200.84 19.3421 241.56 2.76315 322.751C-0.251195 337.833 12.3086 351.909 27.6315 351.909ZM351.674 402.182H25.1196C11.3038 402.182 0 413.493 0 427.318C0 441.143 11.3038 452.455 25.1196 452.455H351.674C365.49 452.455 376.794 441.143 376.794 427.318C376.794 413.493 365.49 402.182 351.674 402.182Z" fill="url(#paint0_linear_2819_3980)"/>
<defs>
<linearGradient id="paint0_linear_2819_3980" x1="275" y1="0" x2="275" y2="553" gradientUnits="userSpaceOnUse">
<stop stop-color="#E3E3E3"/>
<stop offset="1" stop-color="#D9D9D9"/>
</linearGradient>
</defs>
</svg>
