<svg width="75" height="75" viewBox="0 0 75 75" fill="none" xmlns="http://www.w3.org/2000/svg">
<path d="M6.25 37.5C6.25 54.7594 20.2406 68.75 37.5 68.75C54.7594 68.75 68.75 54.7594 68.75 37.5C68.75 20.2406 54.7594 6.25 37.5 6.25C24.6875 6.25 13.6719 13.9625 8.85 25M6.25 14.0625L7.8125 26.5625L20.3125 23.4375" stroke="#FFA629" stroke-width="4.6875" stroke-linecap="round" stroke-linejoin="round"/>
<path d="M46.0189 31.4375C45.7064 29.0563 42.9783 25.2031 38.0658 25.2031C32.3596 25.2031 29.9596 28.3719 29.4721 29.9531C28.7127 32.0719 28.8627 36.425 35.5533 36.9C43.9127 37.4937 47.2627 38.4844 46.8346 43.6094C46.4096 48.7344 41.7502 49.8437 38.0658 49.725C34.3846 49.6062 28.3564 47.9125 28.1221 43.35M37.4814 20.3125V25.2187M37.4814 49.6969V54.6875" stroke="#FFA629" stroke-width="4.6875" stroke-linecap="round" stroke-linejoin="round"/>
</svg>
