<svg width="51" height="54" viewBox="0 0 51 54" fill="none" xmlns="http://www.w3.org/2000/svg">
<path d="M50.8253 45.5115L45.9115 23.4774C44.1529 14.3258 35.9391 7.49177 26.1857 7.92261C23.2293 8.05075 20.5811 9.49741 18.3471 11.5272C16.1075 13.5588 14.165 16.2739 12.5753 19.2062C9.40717 25.0374 7.43311 32.1054 7.43311 37.2439V46.9006C7.43311 50.6983 10.4583 53.9296 14.3451 53.9575C15.2725 53.9662 16.1923 53.7885 17.0497 53.4351C17.9072 53.0816 18.685 52.5595 19.3369 51.8999C19.9833 52.5524 20.7527 53.0703 21.6007 53.4235C22.4486 53.7767 23.3581 53.9582 24.2767 53.9575C25.1948 53.9564 26.1037 53.7743 26.9513 53.4215C27.7989 53.0688 28.5687 52.5523 29.2165 51.9017C29.863 52.554 30.6326 53.0715 31.4805 53.4244C32.3284 53.7772 33.2379 53.9584 34.1563 53.9575C35.0744 53.9564 35.9833 53.7743 36.8309 53.4215C37.6785 53.0688 38.4483 52.5523 39.0961 51.9017C40.0675 52.8818 41.3084 53.5511 42.661 53.8244C44.0136 54.0977 45.417 53.9628 46.6928 53.4368C47.9686 52.9107 49.0592 52.0173 49.8261 50.8701C50.593 49.7228 51.0015 48.3735 50.9999 46.9935V46.9471L50.998 46.9006C50.9794 46.4336 50.9216 45.9689 50.8253 45.5115Z" fill="#9B9B9B"/>
<path d="M11.7231 27.3272L13.1716 28.0515C14.3415 28.6272 15.0843 29.8343 15.0843 31.1528V35.3869H8.9746L0.092258 32.8836C-0.0385707 32.5018 -0.0300182 32.086 0.1164 31.7099L0.654949 30.3728C1.40396 28.5108 2.63121 26.8794 4.21268 25.6436C5.79415 24.4077 7.67381 23.6112 9.66171 23.3345C10.4974 23.2231 11.2216 23.8545 11.2216 24.6902V26.5287C11.2216 26.863 11.4259 27.1787 11.7231 27.3272Z" fill="#F9C23C"/>
<path d="M0.654783 33.7342C2.43757 35.5355 5.92885 37.244 8.97444 37.244H15.0842V34.9041L14.1371 32.8613H0.0883789C0.181232 33.177 0.394794 33.4742 0.654783 33.7342Z" fill="#FFB02E"/>
<path d="M32.9308 18.4132V17.5961C31.6292 17.4926 30.3665 17.1027 29.2332 16.4542C28.0999 15.8057 27.124 14.9146 26.3754 13.8448C25.2426 15.2376 23.5898 16.2219 21.7141 16.4633C21.886 17.5194 21.8201 18.6005 21.5211 19.6278C21.2222 20.6551 20.6977 21.6028 19.986 22.4017C19.2743 23.2006 18.3932 23.8306 17.4071 24.2458C16.421 24.6609 15.3547 24.8508 14.2859 24.8016C10.6089 24.6344 7.61901 21.626 7.45187 17.949C7.37992 16.3461 7.84504 14.765 8.77351 13.4564C9.70198 12.1478 11.0407 11.1865 12.5774 10.725C13.1902 10.5393 13.5988 9.98214 13.5988 9.35074V9.33217C13.5988 5.35804 16.8115 2.14531 20.7856 2.14531C21.8256 2.14531 22.8098 2.36816 23.7012 2.75815C25.1126 3.38955 26.7839 3.14813 27.9724 2.14531C29.5355 0.837389 31.5056 0.115047 33.5436 0.102539H33.8036C40.2105 0.251105 43.2375 8.1065 38.7063 12.6378L32.9308 18.4132ZM11.166 40.0295L9.29037 43.5579C9.29037 45.1922 7.97185 46.5293 6.31906 46.5293C4.20201 46.5293 2.77207 44.3751 3.57061 42.4066L5.00055 38.9896C5.44624 37.931 6.46763 37.2439 7.61901 37.2439H9.29037L11.166 40.0295Z" fill="#FF0000"/>
<path d="M49.0127 45.9163L44.0914 23.8543C42.5129 15.5718 35.0847 9.38774 26.2636 9.77772C16.7369 10.1863 9.29004 18.1717 9.29004 27.6984V46.9005C9.29004 49.7233 11.5371 52.0817 14.3598 52.1003C16.1055 52.1189 17.6468 51.2461 18.5939 49.909C18.9653 49.389 19.7267 49.389 20.0796 49.909C21.0081 51.2275 22.5309 52.1003 24.2766 52.1003C26.0036 52.1003 27.545 51.2275 28.4735 49.909C28.8449 49.389 29.6063 49.389 29.9592 49.909C30.8877 51.2275 32.4105 52.1003 34.1561 52.1003C35.8832 52.1003 37.4246 51.2275 38.3531 49.909C38.7245 49.389 39.4859 49.389 39.8388 49.909C40.7673 51.2275 42.2901 52.1003 44.0357 52.1003C46.8585 52.1003 49.1427 49.8161 49.1427 46.9934C49.1241 46.622 49.0869 46.2505 49.0127 45.9163Z" fill="white"/>
<path d="M19.5229 29.8153C20.2617 29.8153 20.9702 29.5219 21.4926 28.9995C22.015 28.4771 22.3085 27.7685 22.3085 27.0297C22.3085 26.291 22.015 25.5824 21.4926 25.06C20.9702 24.5376 20.2617 24.2441 19.5229 24.2441C18.7841 24.2441 18.0756 24.5376 17.5532 25.06C17.0308 25.5824 16.7373 26.291 16.7373 27.0297C16.7373 27.7685 17.0308 28.4771 17.5532 28.9995C18.0756 29.5219 18.7841 29.8153 19.5229 29.8153Z" fill="#212121"/>
</svg>
