<svg width="56" height="78" viewBox="0 0 56 78" fill="none" xmlns="http://www.w3.org/2000/svg">
<path d="M22.0662 18.9091L25.5848 24.611L34.7744 22.747L39.1283 28.8757L43.9063 27.021C45.773 29.0034 46.5872 35.1107 45.6767 37.5444L44.4295 40.8782C33.2041 70.8823 -8.47834e-05 66.6759 -8.47834e-05 66.6759C-8.47834e-05 66.6759 21.7118 50.8168 19.4768 40.0583C17.2418 29.2998 19.3265 19.2604 22.0662 18.9091ZM47.0777 25.3172L40.1578 26.1516L34.6873 20.4391L26.7223 21.3942L21.9725 16.4277C25.2937 13.9415 29.3011 12.6422 33.2712 12.9531C34.5053 10.6388 36.6843 8.87202 39.3948 7.98775C42.1054 7.10347 45.1593 7.16317 47.9774 8.15552L39.6674 13.1633C40.7037 12.02 37.9783 12.5652 39.6674 13.1633C42.774 15.4337 46.2032 21.4964 47.0777 25.3172Z" fill="url(#paint0_linear_2748_7214)"/>
<defs>
<linearGradient id="paint0_linear_2748_7214" x1="54.6221" y1="10.5084" x2="30.864" y2="77.6046" gradientUnits="userSpaceOnUse">
<stop stop-color="#FF0000"/>
<stop offset="1" stop-color="#B00A0A"/>
</linearGradient>
</defs>
</svg>
