<svg width="75" height="75" viewBox="0 0 75 75" fill="none" xmlns="http://www.w3.org/2000/svg">
<path d="M18.7737 72.4629C18.3787 72.2643 18.069 71.9293 17.902 71.52C17.735 71.1106 17.7221 70.6545 17.8655 70.2363L20.221 63.3398L24.8323 66.4512L21.1057 71.8652C20.8545 72.2294 20.4801 72.4904 20.0515 72.6003C19.623 72.7101 19.1691 72.6613 18.7737 72.4629ZM55.8753 72.4629C56.6897 72.0527 57.0823 71.1035 56.7835 70.2363L54.3987 63.2578L49.5413 66.0527L53.5432 71.8652C53.7945 72.2294 54.1689 72.4904 54.5975 72.6003C55.026 72.7101 55.4799 72.6613 55.8753 72.4629Z" fill="#82AEC0"/>
<path d="M20.2207 63.3398L19.0195 66.8555C19.7637 66.4277 20.7363 66.4687 21.5098 66.8496C22.2832 67.2305 22.875 67.8984 23.3262 68.6367L24.6914 66.6563C24.6914 66.5742 20.2207 63.3398 20.2207 63.3398ZM54.416 63.252L55.7168 67.1191C54.9727 66.6914 54.082 66.7031 53.3027 67.084C52.5293 67.4648 51.9375 68.1328 51.4863 68.8711L49.6992 66.2754L54.416 63.252Z" fill="#2F7889"/>
<path d="M37.3242 67.9336C50.9188 67.9336 61.9394 56.913 61.9394 43.3184C61.9394 29.7237 50.9188 18.7031 37.3242 18.7031C23.7296 18.7031 12.709 29.7237 12.709 43.3184C12.709 56.913 23.7296 67.9336 37.3242 67.9336Z" fill="#FFEFA1"/>
<path d="M37.3242 70.0664C53.2973 70.0664 66.2461 57.1176 66.2461 41.1445C66.2461 25.1714 53.2973 12.2227 37.3242 12.2227C21.3511 12.2227 8.40234 25.1714 8.40234 41.1445C8.40234 57.1176 21.3511 70.0664 37.3242 70.0664Z" fill="#CC2929"/>
<path d="M37.3242 69.7852C52.3395 69.7852 64.5117 57.6129 64.5117 42.5977C64.5117 27.5824 52.3395 15.4102 37.3242 15.4102C22.309 15.4102 10.1367 27.5824 10.1367 42.5977C10.1367 57.6129 22.309 69.7852 37.3242 69.7852Z" fill="#FF4638"/>
<path d="M37.3242 66.0527C50.2781 66.0527 60.7793 55.5515 60.7793 42.5977C60.7793 29.6438 50.2781 19.1426 37.3242 19.1426C24.3703 19.1426 13.8691 29.6438 13.8691 42.5977C13.8691 55.5515 24.3703 66.0527 37.3242 66.0527Z" fill="#FAFAFA"/>
<path d="M37.5 45.2051C38.94 45.2051 40.1074 44.0377 40.1074 42.5977C40.1074 41.1576 38.94 39.9902 37.5 39.9902C36.06 39.9902 34.8926 41.1576 34.8926 42.5977C34.8926 44.0377 36.06 45.2051 37.5 45.2051Z" fill="#563428"/>
<path d="M37.3242 24.9434C36.8496 24.9434 36.4629 24.5566 36.4629 24.082V21.5039C36.4629 21.0293 36.8496 20.6426 37.3242 20.6426C37.7988 20.6426 38.1855 21.0293 38.1855 21.5039V24.082C38.1855 24.5566 37.7988 24.9434 37.3242 24.9434ZM37.3242 64.5469C36.8496 64.5469 36.4629 64.1602 36.4629 63.6856V61.1074C36.4629 60.6328 36.8496 60.2461 37.3242 60.2461C37.7988 60.2461 38.1855 60.6328 38.1855 61.1074V63.6856C38.1855 64.1602 37.7988 64.5469 37.3242 64.5469ZM58.4121 43.4531H55.834C55.3594 43.4531 54.9727 43.0664 54.9727 42.5918C54.9727 42.1172 55.3594 41.7305 55.834 41.7305H58.4121C58.8867 41.7305 59.2734 42.1172 59.2734 42.5918C59.2734 43.0723 58.8867 43.4531 58.4121 43.4531ZM18.8145 43.4531H16.2363C15.7617 43.4531 15.375 43.0664 15.375 42.5918C15.375 42.1172 15.7617 41.7305 16.2363 41.7305H18.8145C19.2891 41.7305 19.6758 42.1172 19.6758 42.5918C19.6758 43.0723 19.2891 43.4531 18.8145 43.4531Z" fill="#B2947C"/>
<path d="M37.3242 24.9434C36.8496 24.9434 36.4629 24.5566 36.4629 24.082V21.5039C36.4629 21.0293 36.8496 20.6426 37.3242 20.6426C37.7988 20.6426 38.1856 21.0293 38.1856 21.5039V24.082C38.1856 24.5566 37.7988 24.9434 37.3242 24.9434ZM37.3242 64.5469C36.8496 64.5469 36.4629 64.1602 36.4629 63.6856V61.1074C36.4629 60.6328 36.8496 60.2461 37.3242 60.2461C37.7988 60.2461 38.1856 60.6328 38.1856 61.1074V63.6856C38.1856 64.1602 37.7988 64.5469 37.3242 64.5469ZM27.3223 26.9941L26.0332 24.7617C25.793 24.3516 25.9336 23.8242 26.3496 23.584C26.7598 23.3438 27.2871 23.4844 27.5274 23.9004L28.8164 26.1328C29.0566 26.543 28.916 27.0703 28.5 27.3105C28.0899 27.5449 27.5625 27.4043 27.3223 26.9941ZM47.127 61.2891L45.8379 59.0566C45.5977 58.6465 45.7441 58.1191 46.1543 57.8789C46.5645 57.6387 47.0918 57.7852 47.332 58.1953L48.6211 60.4277C48.8613 60.8379 48.7149 61.3652 48.3047 61.6055C47.8887 61.8398 47.3613 61.6992 47.127 61.2891Z" fill="#B2947C"/>
<path d="M27.322 26.9941L26.0329 24.7617C25.7927 24.3516 25.9333 23.8242 26.3493 23.584C26.7595 23.3438 27.2868 23.4844 27.5271 23.9004L28.8161 26.1328C29.0563 26.543 28.9157 27.0703 28.4997 27.3106C28.0896 27.5449 27.5622 27.4043 27.322 26.9941ZM47.1267 61.2891L45.8376 59.0566C45.5974 58.6465 45.7438 58.1191 46.154 57.8789C46.5642 57.6387 47.0915 57.7852 47.3317 58.1953L48.6208 60.4277C48.861 60.8379 48.7146 61.3652 48.3044 61.6055C47.8884 61.8399 47.361 61.6992 47.1267 61.2891ZM20.8649 34.084L18.6325 32.7949C18.2224 32.5547 18.0817 32.0332 18.3161 31.6172C18.5563 31.207 19.0778 31.0664 19.4938 31.3008L21.7263 32.5899C22.1364 32.8301 22.2771 33.3516 22.0427 33.7676C21.8024 34.1836 21.2751 34.3242 20.8649 34.084ZM55.1599 53.8828L52.9274 52.5938C52.5173 52.3535 52.3767 51.832 52.611 51.416C52.8513 51.0059 53.3728 50.8652 53.7888 51.0996L56.0212 52.3887C56.4313 52.6289 56.572 53.1504 56.3376 53.5664C56.0974 53.9824 55.57 54.1231 55.1599 53.8828ZM46.1481 27.3106C45.738 27.0703 45.5974 26.5488 45.8317 26.1328L47.1208 23.9004C47.361 23.4902 47.8825 23.3496 48.2985 23.584C48.7087 23.8242 48.8493 24.3457 48.6149 24.7617L47.3259 26.9941C47.0856 27.4043 46.5642 27.5449 46.1481 27.3106ZM26.3493 61.6055C25.9392 61.3652 25.7985 60.8438 26.0329 60.4277L27.322 58.1953C27.5622 57.7852 28.0837 57.6445 28.4997 57.8789C28.9099 58.1191 29.0505 58.6406 28.8161 59.0566L27.5271 61.2891C27.2868 61.6992 26.7595 61.8399 26.3493 61.6055ZM52.611 33.7676C52.3708 33.3574 52.5114 32.8301 52.9274 32.5899L55.1599 31.3008C55.57 31.0606 56.0974 31.207 56.3376 31.6172C56.5778 32.0274 56.4313 32.5547 56.0212 32.7949L53.7888 34.084C53.3728 34.3242 52.8454 34.1836 52.611 33.7676ZM18.3161 53.5723C18.0759 53.1621 18.2224 52.6348 18.6325 52.3945L20.8649 51.1055C21.2751 50.8652 21.8024 51.0117 22.0427 51.4219C22.2829 51.832 22.1364 52.3594 21.7263 52.5996L19.4938 53.8887C19.0778 54.1231 18.5505 53.9824 18.3161 53.5723Z" fill="#B2947C"/>
<path d="M27.8262 37.2012L37.3242 42.5977" stroke="#563428" stroke-width="2.92969" stroke-miterlimit="10" stroke-linecap="round"/>
<path d="M50.9004 34.8105L37.7578 42.5977" stroke="#563428" stroke-width="2.05078" stroke-miterlimit="10" stroke-linecap="round"/>
<path d="M53.9004 19.0371L51.4746 17.4492L59.7305 2.82422L62.25 4.24805L53.9004 19.0371Z" fill="#82AEC0"/>
<path d="M65.1385 20.6309C65.8592 20.8418 66.6326 20.4434 66.8553 19.7285C68.7537 13.6641 66.2928 7.06641 60.3396 4.00196C54.3455 0.914071 47.8357 2.94142 44.0447 8.11524C43.617 8.69532 43.7166 9.50977 44.2556 9.98438C45.4803 11.0684 48.199 13.1074 53.6189 15.8496C59.3435 18.7441 63.2693 20.0801 65.1385 20.6309Z" fill="#CC2929"/>
<path d="M62.0215 6.03516C62.0215 6.03516 63.5508 4.08399 61.3301 2.84766C59.6016 1.88672 58.5059 3.99024 58.5059 3.99024C58.125 4.6875 61.7578 6.51563 62.0215 6.03516ZM20.877 19.0547L12.5156 4.24805L15.041 2.82422L23.1621 17.2148L20.877 19.0547Z" fill="#82AEC0"/>
<path d="M9.86173 20.6309C9.14103 20.8418 8.36759 20.4434 8.14494 19.7285C6.2465 13.6641 8.70744 7.06641 14.6606 4.00196C20.6547 0.914071 27.1645 2.94142 30.9555 8.11524C31.3832 8.69532 31.2836 9.50977 30.7445 9.98438C29.5199 11.0684 26.8012 13.1074 21.3813 15.8496C15.6567 18.7441 11.7309 20.0801 9.86173 20.6309Z" fill="#CC2929"/>
<path d="M12.9782 6.03516C12.9782 6.03516 11.4489 4.08399 13.6696 2.84766C15.3981 1.88672 16.4938 3.99024 16.4938 3.99024C16.8746 4.6875 13.2418 6.51563 12.9782 6.03516Z" fill="#82AEC0"/>
<path d="M37.3242 13.6055V5.56641" stroke="#82AEC0" stroke-width="2.17148" stroke-miterlimit="10"/>
<path d="M37.3594 8.42578C35.0625 8.42578 32.7598 7.54688 32.7598 7.54688V5.80664C32.7598 5.80664 34.8984 4.85156 37.4707 4.85156C40.043 4.85156 41.9531 5.80664 41.9531 5.80664V7.54688C41.959 7.55273 39.6621 8.42578 37.3594 8.42578Z" fill="#82AEC0"/>
<path d="M33.3394 5.73633C33.0875 5.83008 33.064 6.17578 33.2984 6.31055C33.6383 6.50391 34.0425 6.70312 34.1832 6.67969C36.1168 6.38086 38.9234 6.52734 40.8629 6.82031C40.9976 6.84375 41.3843 6.51562 41.6597 6.26953C41.8121 6.12891 41.7769 5.88867 41.5894 5.80078C40.98 5.52539 39.6031 5.0332 37.4703 5.0332C35.5015 5.0332 34.0777 5.44922 33.3394 5.73633Z" fill="#94D1E0"/>
<path d="M55.6993 4.6289C55.881 5.25 55.213 5.75976 54.6739 6.11718C53.3148 7.03006 52.2228 8.28786 51.5099 9.76172C51.17 10.4648 50.7892 11.3262 50.0099 11.4375C49.6993 11.4785 49.3947 11.3848 49.1017 11.2793C48.6505 11.1152 48.2111 10.9277 47.7833 10.7109C47.2736 10.4531 46.7521 10.125 46.5177 9.60351C46.213 8.91797 46.5001 8.10937 46.9103 7.47656C47.8888 5.98242 49.4825 5.05664 51.1232 4.44726C52.1134 4.07812 55.2071 2.94726 55.6993 4.6289ZM15.3107 9.56836C15.6915 10.3594 16.1193 11.1269 16.5939 11.8652C17.1739 12.7676 17.8478 13.7754 17.6017 14.8184C17.3146 16.0137 15.9904 16.5879 14.8243 16.9863C14.2267 17.1914 13.6349 17.3965 13.0372 17.6016C12.7208 17.7129 12.3868 17.8242 12.0529 17.8066C11.5255 17.7832 11.0509 17.4492 10.7521 17.0215C10.4474 16.5937 10.295 16.0781 10.1779 15.5684C9.7384 13.6055 9.82629 11.5254 10.4298 9.60351C10.7814 8.50195 11.3322 7.34179 12.5802 7.2539C14.0978 7.14843 14.7423 8.38476 15.3107 9.56836Z" fill="#FF4638"/>
</svg>
