<svg width="396" height="396" viewBox="0 0 396 396" fill="none" xmlns="http://www.w3.org/2000/svg">
<path d="M95.6029 33.7404V82.6093L85.7524 92.3732H154.675V23.9766L144.831 33.7404H95.6029Z" fill="url(#paint0_linear_2823_4101)"/>
<path d="M265.728 92.3733C265.592 91.6246 265.4 90.8883 265.32 90.1396C261.259 90.7555 257.11 90.3929 253.217 89.0821C249.324 87.7713 245.801 85.5501 242.94 82.6033C239.517 79.0876 237.16 74.675 236.141 69.8757C235.121 65.0765 235.481 60.0867 237.179 55.4834C235.918 55.3567 234.669 55.1333 233.442 54.8152C229.856 53.9203 226.502 52.2707 223.604 49.9766C220.325 47.422 217.724 44.1009 216.03 40.3055C215.08 38.0884 214.442 35.7498 214.137 33.3569L213.747 33.7406H164.513V82.6033L154.669 92.3733H265.728ZM95.6029 102.15V151.006L85.7524 160.782H154.675L154.669 92.3733L144.831 102.15H95.6029ZM164.519 102.15V151.006L154.675 160.782H223.604V92.3733L213.753 102.15H164.519Z" fill="url(#paint1_linear_2823_4101)"/>
<path d="M308.793 198.118C307.279 197.028 305.684 196.053 304.023 195.203V112.736H292.52C289.183 112.955 285.835 112.511 282.67 111.431C277.573 109.737 273.133 106.492 269.973 102.149H233.442V151.006L223.604 160.782H292.52L282.67 170.552H233.442V189.257C230.196 189.591 226.916 189.969 223.604 190.389V160.782L213.753 170.552H164.519V201.007C161.199 201.75 157.917 202.502 154.675 203.266V160.782L144.831 170.552H95.6031V218.976C91.9029 220.071 88.5864 221.067 85.7526 221.939V23.9766H213.673V12.375H74.25V383.625H304.017V267.851C316.243 239.568 334.372 217.033 308.793 198.118ZM299.667 248.292C290.707 266.755 278.963 290.955 284.749 319.182C251.701 318.18 238.386 300.434 221.642 278.128C205.171 256.193 185.674 230.225 143.971 218.604C181.09 209.317 226.834 200.06 261.682 200.06C285.695 200.06 296.66 204.447 301.628 208.123C313.341 216.779 311.714 223.462 299.667 248.292ZM85.7526 372.023V225.893C87.8192 226.005 89.7559 226.19 91.7421 226.357C103.665 227.991 131.2 233.065 153.766 246.875C164.587 254.479 173.101 263.526 180.471 273.11C183.882 278.451 187.556 283.62 191.478 288.597C212.355 319.925 228.789 351.19 281.005 351.19C276.377 345.547 273.345 338.351 271.427 330.283C276.414 331.13 281.803 331.6 287.737 331.6C289.278 331.6 290.899 331.532 292.508 331.471V372.023H85.7526Z" fill="url(#paint2_linear_2823_4101)"/>
<defs>
<linearGradient id="paint0_linear_2823_4101" x1="120.214" y1="23.9766" x2="120.214" y2="92.3732" gradientUnits="userSpaceOnUse">
<stop stop-color="#E3E3E3"/>
<stop offset="1" stop-color="#D9D9D9"/>
</linearGradient>
<linearGradient id="paint1_linear_2823_4101" x1="175.74" y1="33.3569" x2="175.74" y2="160.782" gradientUnits="userSpaceOnUse">
<stop stop-color="#E3E3E3"/>
<stop offset="1" stop-color="#D9D9D9"/>
</linearGradient>
<linearGradient id="paint2_linear_2823_4101" x1="197.999" y1="12.375" x2="197.999" y2="383.625" gradientUnits="userSpaceOnUse">
<stop stop-color="#E3E3E3"/>
<stop offset="1" stop-color="#D9D9D9"/>
</linearGradient>
</defs>
</svg>
