<svg width="75" height="75" viewBox="0 0 75 75" fill="none" xmlns="http://www.w3.org/2000/svg">
<path d="M55.3937 40.6875L43.75 50H28.125V46.875H40.8281C41.1108 46.8749 41.3881 46.7981 41.6305 46.6528C41.8729 46.5075 42.0714 46.2992 42.2048 46.05C42.3382 45.8008 42.4015 45.5201 42.388 45.2378C42.3745 44.9555 42.2847 44.6822 42.1281 44.4469L39.3531 40.2844C38.7828 39.4285 38.0102 38.7266 37.1036 38.2409C36.1971 37.7552 35.1847 37.5007 34.1563 37.5H9.375C8.5462 37.5 7.75134 37.8292 7.16529 38.4153C6.57924 39.0013 6.25 39.7962 6.25 40.625V59.375C6.25 61.0326 6.90848 62.6223 8.08058 63.7944C9.25268 64.9665 10.8424 65.625 12.5 65.625H42.6219C43.9582 65.6253 45.2791 65.3399 46.496 64.788C47.713 64.2361 48.798 63.4305 49.6781 62.425L68.75 40.625L64.2125 39.1125C62.7279 38.6182 61.1432 38.5034 59.6028 38.7785C58.0625 39.0536 56.6155 39.7099 55.3937 40.6875ZM60.1812 23.0937C61.5906 21.6406 62.4625 19.6313 62.4625 17.4125C62.4625 15.1938 61.5906 13.1844 60.1812 11.7313C59.4682 10.9879 58.6124 10.396 57.6652 9.99115C56.718 9.58628 55.6988 9.37671 54.6687 9.375C54.6687 9.375 50.7812 9.36562 46.875 13.3937C42.9688 9.36562 39.0812 9.375 39.0812 9.375C38.0514 9.37631 37.0323 9.58538 36.0852 9.98971C35.138 10.394 34.2821 10.9853 33.5687 11.7281C32.1594 13.1844 31.2875 15.1906 31.2875 17.4094C31.2875 19.6281 32.1594 21.6406 33.5687 23.0906L46.875 37.5L60.1812 23.0937Z" fill="#FFA629"/>
</svg>
