<svg width="75" height="76" viewBox="0 0 75 76" fill="none" xmlns="http://www.w3.org/2000/svg">
<path d="M75 37.5322C75 16.8217 58.2105 0.0322266 37.5 0.0322266C16.7895 0.0322266 0 16.8217 0 37.5322C0 56.2494 13.7133 71.7636 31.6406 74.5767V48.3721H22.1191V37.5322H31.6406V29.2705C31.6406 19.8721 37.2393 14.6807 45.8051 14.6807C49.9078 14.6807 54.1992 15.4131 54.1992 15.4131V24.6416H49.4707C44.8122 24.6416 43.3594 27.5323 43.3594 30.498V37.5322H53.7598L52.0972 48.3721H43.3594V74.5767C61.2867 71.7636 75 56.2497 75 37.5322Z" fill="black"/>
<path d="M52.0972 48.3721L53.7598 37.5322H43.3594V30.498C43.3594 27.532 44.8122 24.6416 49.4707 24.6416H54.1992V15.4131C54.1992 15.4131 49.9078 14.6807 45.8048 14.6807C37.2393 14.6807 31.6406 19.8721 31.6406 29.2705V37.5322H22.1191V48.3721H31.6406V74.5767C33.579 74.8804 35.538 75.0327 37.5 75.0322C39.462 75.0327 41.421 74.8804 43.3594 74.5767V48.3721H52.0972Z" fill="#FDC801"/>
</svg>
