<svg width="76" height="76" viewBox="0 0 76 76" fill="none" xmlns="http://www.w3.org/2000/svg">
<path d="M36.7716 0.300396C19.7688 0.26565 2.97479 9.02664 4.30333 27.4442C26.4685 29.3305 48.4565 28.9157 70.391 27.5538C72.0792 9.73563 54.3142 0.3363 36.7716 0.300396ZM46.3257 4.27072C48.1073 4.27072 49.5515 5.00999 49.5515 5.92199C49.5515 6.83399 48.1073 7.57343 46.3257 7.57343C44.5442 7.57343 43.0998 6.83416 43.0998 5.92216C43.0998 5.01015 44.544 4.27072 46.3257 4.27072ZM28.4781 7.55175C30.2596 7.55175 31.704 8.29118 31.704 9.20302C31.704 10.1152 30.2596 10.8545 28.4781 10.8545C26.6965 10.8545 25.2523 10.1152 25.2521 9.20318C25.252 8.29118 26.6965 7.55175 28.4781 7.55175ZM56.8897 13.1806C58.6713 13.1806 60.1155 13.9199 60.1156 14.8319C60.1158 15.7439 58.6713 16.4832 56.8897 16.4832C55.1082 16.4832 53.6638 15.7439 53.6638 14.8319C53.6638 13.9199 55.1082 13.1806 56.8897 13.1806ZM13.2343 16.7438C15.0159 16.7438 16.4601 17.483 16.4603 18.395C16.4604 19.307 15.0159 20.0463 13.2343 20.0463C11.4528 20.0463 10.0084 19.3072 10.0084 18.395C10.0084 17.483 11.4528 16.7438 13.2343 16.7438ZM63.301 21.7146C65.0826 21.7146 66.5268 22.4539 66.5268 23.3659C66.5268 24.2779 65.0826 25.0171 63.3009 25.0171C61.5192 25.0171 60.0751 24.2779 60.0751 23.3659C60.0751 22.4539 61.5195 21.7146 63.301 21.7146ZM41.2954 23.0457C43.0771 23.0457 44.5215 23.7853 44.5212 24.6973C44.5212 25.6093 43.077 26.3486 41.2953 26.3486C39.5136 26.3486 38.0695 25.6093 38.0695 24.6973C38.0692 23.7851 39.5136 23.0457 41.2953 23.0457H41.2954ZM5.9194 30.5762C2.89341 30.6432 4.47885 34.6274 8.21442 34.642C28.7271 36.331 45.9791 36.2446 67.5913 34.2416C70.1596 33.7935 71.6142 32.0762 69.3184 30.6066C48.323 31.8757 27.2236 32.2687 5.9194 30.5762ZM70.2279 37.2958C49.2892 39.546 25.9336 39.0372 7.98721 37.6108C0.490364 36.5807 0.348032 45.3517 5.27237 46.2657C28.5976 48.6918 48.6463 48.0419 71.5137 46.178C75.5039 45.9888 73.836 37.0236 70.2279 37.2958ZM0.0742188 56.113L2.52067 57.6739C3.53263 56.2814 5.37305 52.371 7.83721 52.3475C10.8884 52.3187 11.4027 58.8503 14.5357 58.8174C18.143 58.7796 20.5718 53.5975 22.9045 53.7077C26.4292 53.8745 27.1063 59.6476 29.8546 59.6523C33.6984 59.6589 34.8712 53.6313 37.3231 53.806C40.747 54.05 42.628 58.4841 45.4416 58.6337C48.4739 58.7949 50.3329 53.1691 52.3451 53.2153C54.9955 53.2758 56.8624 58.5861 60.9999 58.7073C63.4485 58.7791 65.7381 52.5174 66.9047 52.616C69.2051 52.8103 71.1409 56.0158 72.6626 58.3797L75.0742 56.7622C73.1548 54.0791 70.2686 49.4113 66.6878 49.4793C63.3518 49.5425 62.5474 55.7855 60.6081 55.7572C56.8934 55.703 55.2218 50.4354 52.2153 50.2399C49.1267 50.039 47.3525 55.8052 45.2976 55.6616C42.2732 55.4503 40.941 50.8368 37.4032 50.7116C34.2725 50.6007 31.9586 56.9442 29.9366 56.6753C27.0423 56.2905 26.7093 50.6563 23.0248 50.4151C19.9755 50.2154 17.0312 55.4788 14.9964 55.3787C12.2 55.2408 10.9685 48.7233 7.75057 48.7627C4.26791 48.8053 1.5044 53.7826 0.0742188 56.113ZM7.66201 62.0982C6.33092 62.2117 4.75825 62.8016 4.17552 64.1539C3.78426 65.2562 7.23486 65.5699 7.54457 65.5925C28.067 66.9334 48.1306 66.9592 69.743 65.37C71.215 65.2616 71.9665 64.8493 72.1767 64.6397C72.6752 63.2816 68.4799 62.334 68.057 62.3226C38.5359 62.1277 23.4974 62.6881 7.66201 62.0982ZM70.7787 68.2519C50.5481 69.403 25.5931 69.8046 5.6566 68.3689L5.73973 74.7672C27.4273 75.5311 49.7233 75.4273 70.6281 74.7526L70.7787 68.2519Z" fill="#D9D9D9"/>
</svg>
