<svg width="15" height="56" viewBox="0 0 15 56" fill="none" xmlns="http://www.w3.org/2000/svg">
<path d="M4.875 1.8125V12.3125L1.01975 24.125L1.57012 27.625L1.8125 29.375L0.5 33.75V55.625H14.5V33.75L13.1875 29.375L13.4307 27.625L13.9802 24.125L10.125 12.3125V1.8125H4.875Z" fill="#E6E6E6"/>
<path d="M9.6875 0.5H5.3125C4.82925 0.5 4.4375 0.891751 4.4375 1.375V3.5625C4.4375 4.04575 4.82925 4.4375 5.3125 4.4375H9.6875C10.1707 4.4375 10.5625 4.04575 10.5625 3.5625V1.375C10.5625 0.891751 10.1707 0.5 9.6875 0.5Z" fill="#BEBEB8"/>
<path d="M10.125 3.5625V11.875L14.0625 24.125L13.1875 29.375L14.5 33.75V55.625H11V34.625C11 33.3125 10.125 32 10.125 29.8125C10.125 27.625 11.875 26.75 11.875 25C11.875 21.9375 7.5 14.0625 7.5 7.9375V3.5625H10.125Z" fill="url(#paint0_linear_2880_5056)"/>
<path d="M7.5 0.5V4.4375H9.6875C10.1723 4.4375 10.5625 4.04725 10.5625 3.5625V1.375C10.5625 0.89025 10.1723 0.5 9.6875 0.5H7.5Z" fill="#B7B5B5"/>
<path d="M7.5 25C7.98325 25 8.375 24.6082 8.375 24.125C8.375 23.6418 7.98325 23.25 7.5 23.25C7.01675 23.25 6.625 23.6418 6.625 24.125C6.625 24.6082 7.01675 25 7.5 25Z" fill="#605858"/>
<path d="M7.5 28.5C7.98325 28.5 8.375 28.1082 8.375 27.625C8.375 27.1418 7.98325 26.75 7.5 26.75C7.01675 26.75 6.625 27.1418 6.625 27.625C6.625 28.1082 7.01675 28.5 7.5 28.5Z" fill="#605858"/>
<path d="M9.68789 26.75C10.1228 26.75 10.4754 26.3582 10.4754 25.875C10.4754 25.3918 10.1228 25 9.68789 25C9.25297 25 8.90039 25.3918 8.90039 25.875C8.90039 26.3582 9.25297 26.75 9.68789 26.75Z" fill="#605858"/>
<path d="M5.31289 26.75C5.74782 26.75 6.10039 26.3582 6.10039 25.875C6.10039 25.3918 5.74782 25 5.31289 25C4.87797 25 4.52539 25.3918 4.52539 25.875C4.52539 26.3582 4.87797 26.75 5.31289 26.75Z" fill="#605858"/>
<path d="M11.4375 25C11.7999 25 12.0938 24.6082 12.0938 24.125C12.0938 23.6418 11.7999 23.25 11.4375 23.25C11.0751 23.25 10.7812 23.6418 10.7812 24.125C10.7812 24.6082 11.0751 25 11.4375 25Z" fill="#605858"/>
<path d="M11.4375 28.5C11.7999 28.5 12.0938 28.1082 12.0938 27.625C12.0938 27.1418 11.7999 26.75 11.4375 26.75C11.0751 26.75 10.7812 27.1418 10.7812 27.625C10.7812 28.1082 11.0751 28.5 11.4375 28.5Z" fill="#605858"/>
<path d="M3.5625 25C3.92494 25 4.21875 24.6082 4.21875 24.125C4.21875 23.6418 3.92494 23.25 3.5625 23.25C3.20006 23.25 2.90625 23.6418 2.90625 24.125C2.90625 24.6082 3.20006 25 3.5625 25Z" fill="#605858"/>
<path d="M3.5625 28.5C3.92494 28.5 4.21875 28.1082 4.21875 27.625C4.21875 27.1418 3.92494 26.75 3.5625 26.75C3.20006 26.75 2.90625 27.1418 2.90625 27.625C2.90625 28.1082 3.20006 28.5 3.5625 28.5Z" fill="#605858"/>
<path d="M5.3125 3.5625H9.6875M3.5625 35.0625H11.4375M9.25 6.625V7.9375C9.25 11.875 14.0625 21.9375 14.0625 25C14.0625 26.75 13.1875 27.625 13.1875 29.375C13.1875 31.125 14.5 32 14.5 34.625V55.625H0.5V34.625C0.5 32 1.8125 31.125 1.8125 29.375C1.8125 27.625 0.9375 26.75 0.9375 25C0.9375 21.9375 5.75 11.875 5.75 7.9375V6.625" stroke="#605858" stroke-width="0.5" stroke-linecap="round" stroke-linejoin="round"/>
<defs>
<linearGradient id="paint0_linear_2880_5056" x1="11" y1="3.5625" x2="11" y2="55.625" gradientUnits="userSpaceOnUse">
<stop stop-color="#52D17C"/>
<stop offset="1" stop-color="#22918B"/>
</linearGradient>
</defs>
</svg>
