<svg width="66" height="66" viewBox="0 0 66 66" fill="none" xmlns="http://www.w3.org/2000/svg">
<path d="M19 0.25H9.625C7.1386 0.25 4.75403 1.23772 2.99587 2.99587C1.23772 4.75403 0.25 7.1386 0.25 9.625V19H8.7125C8.08333 17.5605 7.90272 15.9648 8.19426 14.4212C8.4858 12.8775 9.23595 11.4576 10.3468 10.3468C11.4576 9.23595 12.8775 8.4858 14.4212 8.19426C15.9648 7.90272 17.5605 8.08333 19 8.7125V0.25ZM0.25 23.6875V37.75C0.25 40.2364 1.23772 42.621 2.99587 44.3791C4.75403 46.1373 7.1386 47.125 9.625 47.125H19V27L13.625 32.375C13.1807 32.789 12.5931 33.0144 11.9859 33.0037C11.3787 32.993 10.7993 32.747 10.3699 32.3176C9.94052 31.8882 9.69454 31.3088 9.68383 30.7016C9.67312 30.0944 9.8985 29.5068 10.3125 29.0625L15.6875 23.6875H0.25ZM23.6875 47.125H28.4344C28.7305 43.2878 30.1107 39.6137 32.4141 36.5306C34.7176 33.4474 37.8496 31.0821 41.4453 29.7101C45.041 28.3381 48.9526 28.0158 52.7243 28.7808C56.4961 29.5459 59.973 31.3667 62.75 34.0312V23.6875H27L32.375 29.0625C32.6053 29.2771 32.79 29.5358 32.9181 29.8233C33.0462 30.1108 33.115 30.4212 33.1206 30.7359C33.1262 31.0506 33.0683 31.3632 32.9504 31.655C32.8325 31.9468 32.6571 32.2119 32.4345 32.4345C32.2119 32.6571 31.9468 32.8325 31.655 32.9504C31.3632 33.0683 31.0506 33.1262 30.7359 33.1206C30.4212 33.115 30.1108 33.0462 29.8233 32.9181C29.5358 32.79 29.2771 32.6053 29.0625 32.375L23.6875 27V47.125ZM62.75 19H33.975C34.6042 17.5605 34.7848 15.9648 34.4932 14.4212C34.2017 12.8775 33.4516 11.4576 32.3407 10.3468C31.2299 9.23595 29.81 8.4858 28.2663 8.19426C26.7227 7.90272 25.127 8.08333 23.6875 8.7125V0.25H53.375C55.8614 0.25 58.246 1.23772 60.0041 2.99587C61.7623 4.75403 62.75 7.1386 62.75 9.625V19ZM26.8125 19H23.6875V15.875C23.6875 15.2569 23.8708 14.6527 24.2142 14.1388C24.5575 13.6249 25.0456 13.2244 25.6166 12.9879C26.1876 12.7514 26.816 12.6895 27.4222 12.81C28.0283 12.9306 28.5852 13.2283 29.0222 13.6653C29.4592 14.1023 29.7569 14.6592 29.8775 15.2653C29.998 15.8715 29.9361 16.4999 29.6996 17.0709C29.4631 17.6419 29.0626 18.13 28.5487 18.4733C28.0348 18.8167 27.4306 19 26.8125 19ZM19 19H15.875C15.258 19 14.6548 18.8173 14.1415 18.475C13.6281 18.1327 13.2276 17.6462 12.9903 17.0766C12.7531 16.507 12.6898 15.88 12.8083 15.2745C12.9269 14.669 13.2221 14.1121 13.6566 13.6741C14.0911 13.2361 14.6456 12.9365 15.2502 12.8131C15.8547 12.6897 16.4822 12.7481 17.0537 12.9808C17.6251 13.2135 18.1149 13.6101 18.4612 14.1207C18.8076 14.6313 18.9951 15.233 19 15.85V19ZM65.875 48.6875C65.875 44.1291 64.0642 39.7574 60.8409 36.5341C57.6176 33.3108 53.2459 31.5 48.6875 31.5C44.1291 31.5 39.7574 33.3108 36.5341 36.5341C33.3108 39.7574 31.5 44.1291 31.5 48.6875C31.5 53.2459 33.3108 57.6176 36.5341 60.8409C39.7574 64.0642 44.1291 65.875 48.6875 65.875C53.2459 65.875 57.6176 64.0642 60.8409 60.8409C64.0642 57.6176 65.875 53.2459 65.875 48.6875ZM50.25 50.25L50.2531 58.0719C50.2531 58.4863 50.0885 58.8837 49.7955 59.1767C49.5025 59.4698 49.105 59.6344 48.6906 59.6344C48.2762 59.6344 47.8788 59.4698 47.5858 59.1767C47.2927 58.8837 47.1281 58.4863 47.1281 58.0719V50.25H39.3C38.8856 50.25 38.4882 50.0854 38.1951 49.7924C37.9021 49.4993 37.7375 49.1019 37.7375 48.6875C37.7375 48.2731 37.9021 47.8757 38.1951 47.5826C38.4882 47.2896 38.8856 47.125 39.3 47.125H47.125V39.3125C47.125 38.8981 47.2896 38.5007 47.5826 38.2076C47.8757 37.9146 48.2731 37.75 48.6875 37.75C49.1019 37.75 49.4993 37.9146 49.7924 38.2076C50.0854 38.5007 50.25 38.8981 50.25 39.3125V47.125H58.0531C58.4675 47.125 58.865 47.2896 59.158 47.5826C59.451 47.8757 59.6156 48.2731 59.6156 48.6875C59.6156 49.1019 59.451 49.4993 59.158 49.7924C58.865 50.0854 58.4675 50.25 58.0531 50.25H50.25Z" fill="#FFA629"/>
</svg>
