<svg width="381" height="75" viewBox="0 0 381 75" fill="none" xmlns="http://www.w3.org/2000/svg">
<path d="M373.312 31.5312L366.284 49.428H366.073L358.741 31.5312H352.112L363.098 56.5493L356.821 70.4644H363.263L380.199 31.5312H373.312ZM323.65 16.6797H317.513V57.955H323.65V16.6797ZM300.552 16.6797H285.794V57.955H291.978V42.3305H300.575C302.308 42.3898 304.036 42.1041 305.658 41.4902C307.28 40.8763 308.764 39.9463 310.024 38.7542C311.284 37.562 312.294 36.1316 312.996 34.5458C313.699 32.96 314.079 31.2506 314.115 29.5166C314.079 27.7796 313.698 26.067 312.995 24.4784C312.291 22.8897 311.279 21.4566 310.018 20.2623C308.756 19.068 307.269 18.1362 305.644 17.5211C304.019 16.9059 302.289 16.6204 300.552 16.6797ZM300.715 36.5666H291.978V22.5119H300.739C302.603 22.5119 304.391 23.2523 305.709 24.5703C307.027 25.8882 307.767 27.6758 307.767 29.5396C307.767 31.4035 307.027 33.191 305.709 34.509C304.391 35.8269 302.603 36.5673 300.739 36.5673L300.715 36.5666ZM338.783 30.6401C336.535 30.5106 334.298 31.0401 332.346 32.1635C330.394 33.2869 328.813 34.9555 327.796 36.9646L333.277 39.3074C333.82 38.3139 334.642 37.5008 335.641 36.968C336.64 36.4353 337.773 36.2062 338.9 36.3089C339.674 36.2315 340.456 36.3078 341.2 36.5334C341.945 36.7591 342.637 37.1296 343.238 37.6238C343.839 38.1179 344.336 38.726 344.701 39.4129C345.066 40.0998 345.292 40.8521 345.365 41.6265V42.0483C343.401 40.9866 341.203 40.431 338.97 40.4317C333.09 40.4317 327.093 43.6649 327.093 49.8023C327.093 55.3307 331.895 58.8914 337.33 58.8914C338.877 58.9891 340.421 58.6661 341.798 57.9567C343.176 57.2473 344.336 56.1779 345.154 54.8621H345.389V58.0478H351.386V42.1664C351.386 34.8342 345.904 30.7582 338.829 30.7582L338.783 30.6401ZM338.057 53.2693C336.042 53.2693 333.231 52.2386 333.231 49.7555C333.231 46.5698 336.721 45.352 339.767 45.352C341.731 45.2985 343.673 45.776 345.388 46.7332C345.162 48.5247 344.295 50.1739 342.948 51.3755C341.6 52.5772 339.862 53.2499 338.057 53.2693ZM115.935 58.8446C103.804 58.8847 93.8959 49.1644 93.7036 37.0352C93.8967 24.906 103.804 15.1857 115.935 15.2258C118.712 15.1793 121.471 15.6879 124.05 16.7217C126.628 17.7556 128.974 19.294 130.95 21.2466L126.71 25.4399C123.834 22.6221 119.961 21.0558 115.935 21.0824C107.176 21.0824 100.076 28.1829 100.076 36.9416C100.076 45.7003 107.176 52.8008 115.935 52.8008C117.982 52.8846 120.024 52.5379 121.928 51.7832C123.833 51.0286 125.558 49.8827 126.992 48.4196C128.898 46.364 130.046 43.7201 130.248 40.924H115.935V35.1386H136.081C136.301 36.3676 136.402 37.6144 136.385 38.8634C136.588 44.0491 134.726 49.1037 131.208 52.9188C129.222 54.9247 126.835 56.4892 124.203 57.5102C121.572 58.5313 118.754 58.986 115.935 58.8446ZM167.541 44.7891C167.619 46.6633 167.317 48.5338 166.653 50.2881C165.989 52.0425 164.978 53.6446 163.679 54.9981C162.38 56.3516 160.821 57.4285 159.096 58.1642C157.37 58.8999 155.514 59.2791 153.638 59.2791C151.763 59.2791 149.906 58.8999 148.181 58.1642C146.455 57.4285 144.896 56.3516 143.598 54.9981C142.299 53.6446 141.287 52.0425 140.624 50.2881C139.96 48.5338 139.658 46.6633 139.735 44.7891C139.658 42.915 139.96 41.0445 140.624 39.2901C141.287 37.5357 142.299 35.9337 143.598 34.5802C144.896 33.2267 146.455 32.1497 148.181 31.4141C149.906 30.6784 151.763 30.2991 153.638 30.2991C155.514 30.2991 157.37 30.6784 159.096 31.4141C160.821 32.1497 162.38 33.2267 163.679 34.5802C164.978 35.9337 165.989 37.5357 166.653 39.2901C167.317 41.0445 167.619 42.915 167.541 44.7891ZM161.451 44.7891C161.554 43.7011 161.428 42.6036 161.083 41.5668C160.737 40.5301 160.178 39.577 159.443 38.7686C158.707 37.9603 157.811 37.3144 156.812 36.8725C155.812 36.4306 154.731 36.2023 153.638 36.2023C152.545 36.2023 151.465 36.4306 150.465 36.8725C149.465 37.3144 148.569 37.9603 147.834 38.7686C147.098 39.577 146.54 40.5301 146.194 41.5668C145.848 42.6036 145.723 43.7011 145.826 44.7891C145.723 45.8772 145.848 46.9747 146.194 48.0114C146.54 49.0482 147.098 50.0013 147.834 50.8096C148.569 51.618 149.465 52.2638 150.465 52.7057C151.465 53.1477 152.545 53.376 153.638 53.376C154.731 53.376 155.812 53.1477 156.812 52.7057C157.811 52.2638 158.707 51.618 159.443 50.8096C160.178 50.0013 160.737 49.0482 161.083 48.0114C161.428 46.9747 161.554 45.8772 161.451 44.7891ZM198.698 44.7891C198.698 52.4614 192.478 58.6805 184.806 58.6805C177.135 58.6805 170.914 52.4614 170.914 44.7891C170.914 37.1169 177.134 30.8978 184.806 30.8978C192.479 30.8978 198.698 37.1169 198.698 44.7891ZM192.631 44.7891C192.734 43.7011 192.608 42.6036 192.263 41.5668C191.917 40.5301 191.358 39.577 190.623 38.7686C189.887 37.9603 188.991 37.3144 187.991 36.8725C186.992 36.4306 185.911 36.2023 184.818 36.2023C183.725 36.2023 182.645 36.4306 181.645 36.8725C180.645 37.3144 179.749 37.9603 179.014 38.7686C178.278 39.577 177.72 40.5301 177.374 41.5668C177.028 42.6036 176.903 43.7011 177.006 44.7891C176.902 45.8774 177.027 46.9754 177.373 48.0125C177.718 49.0497 178.276 50.0033 179.012 50.8121C179.748 51.6209 180.644 52.2671 181.644 52.7093C182.643 53.1515 183.725 53.3799 184.818 53.3799C185.911 53.3799 186.992 53.1515 187.992 52.7093C188.992 52.2671 189.888 51.6209 190.624 50.8121C191.359 50.0033 191.918 49.0497 192.263 48.0125C192.609 46.9754 192.734 45.8774 192.631 44.7891ZM229.103 31.601V56.83C229.103 67.1837 222.942 71.4476 215.68 71.4476C213.018 71.4699 210.41 70.7031 208.183 69.2439C205.957 67.7847 204.213 65.6985 203.171 63.2488L208.489 60.906C209.04 62.3365 210 63.5728 211.25 64.4604C212.5 65.3479 213.984 65.8473 215.516 65.8961C220.202 65.8961 223.059 63.0149 223.059 57.6498V55.6352H222.825C221.906 56.6604 220.779 57.4772 219.518 58.0308C218.257 58.5843 216.893 58.8618 215.516 58.8446C207.753 58.8446 201.461 52.552 201.461 44.7891C201.461 37.0263 207.753 30.7337 215.516 30.7337C216.902 30.7038 218.278 30.9681 219.554 31.5091C220.83 32.0502 221.977 32.8557 222.919 33.8725H223.153V31.5305H229.103V31.601ZM223.645 44.8597C223.731 43.7994 223.603 42.7327 223.269 41.7229C222.935 40.713 222.402 39.7805 221.7 38.9808C220.999 38.1811 220.144 37.5305 219.186 37.0676C218.228 36.6046 217.188 36.3388 216.125 36.2859C215.042 36.3219 213.977 36.5735 212.992 37.0259C212.008 37.4783 211.123 38.1225 210.39 38.9208C209.657 39.7191 209.091 40.6554 208.724 41.6752C208.357 42.6949 208.197 43.7775 208.254 44.8597C208.204 45.9346 208.369 47.0087 208.739 48.019C209.11 49.0293 209.678 49.9554 210.411 50.7431C211.144 51.5307 212.027 52.1641 213.009 52.6059C213.99 53.0477 215.049 53.2892 216.125 53.3161C217.181 53.2751 218.218 53.0212 219.173 52.5697C220.129 52.1183 220.983 51.4785 221.686 50.6889C222.388 49.8992 222.923 48.9759 223.26 47.9742C223.597 46.9725 223.728 45.9132 223.645 44.8597ZM239.949 16.725V57.978H233.765V16.7258L239.949 16.725ZM264.312 49.428L269.138 52.6136C267.849 54.536 266.106 56.1105 264.062 57.1974C262.019 58.2842 259.739 58.8498 257.425 58.8438C255.584 58.87 253.757 58.5224 252.054 57.8221C250.351 57.1218 248.808 56.0832 247.518 54.7693C246.228 53.4555 245.218 51.8935 244.55 50.1781C243.881 48.4627 243.567 46.6294 243.627 44.7891C243.059 38.2396 247.496 32.3065 253.94 30.9995C260.383 29.6926 266.781 33.4285 268.809 39.6824L269.442 41.299L250.702 49.0522C251.285 50.3648 252.249 51.4724 253.468 52.2324C254.687 52.9923 256.106 53.3698 257.541 53.3161C258.907 53.2948 260.245 52.9268 261.429 52.2465C262.613 51.5663 263.605 50.5961 264.312 49.4272M249.531 44.3666L262.134 39.1664C261.646 38.2114 260.889 37.4204 259.956 36.8915C259.023 36.3626 257.956 36.119 256.886 36.1909C255.863 36.2358 254.859 36.484 253.934 36.921C253.008 37.358 252.178 37.9751 251.494 38.7362C250.809 39.4973 250.283 40.3872 249.946 41.3539C249.609 42.3206 249.467 43.3448 249.531 44.3666Z" fill="black"/>
<path d="M31.7193 35.7943L0.283203 68.7305C0.636136 69.9816 1.27046 71.1355 2.1377 72.1039C3.00493 73.0723 4.08211 73.8297 5.28689 74.318C6.49166 74.8063 7.79214 75.0127 9.08891 74.9214C10.3857 74.83 11.6444 74.4434 12.7688 73.7911L48.1414 53.6451L31.7193 35.7943Z" fill="#9D9595"/>
<path d="M63.5083 30.1953L48.2112 21.4344L30.9932 36.5443L48.281 53.5975L63.4615 44.9302C64.8064 44.2261 65.9328 43.1673 66.7188 41.8686C67.5048 40.5699 67.9204 39.0808 67.9204 37.5627C67.9204 36.0447 67.5048 34.5556 66.7188 33.2569C65.9328 31.9582 64.8064 30.8994 63.4615 30.1953H63.5083Z" fill="#C6B7B7"/>
<path d="M0.282467 6.23096C0.0930242 6.93377 -0.0016258 7.65876 0.00103097 8.38665V66.5755C0.0032587 67.3032 0.0975657 68.0272 0.282467 68.7305L32.7968 36.6386L0.282467 6.23096Z" fill="#B6BAC0"/>
<path d="M31.954 37.4807L48.2112 21.4344L12.8847 1.19556C11.5556 0.416981 10.0439 0.00446955 8.5035 1.58043e-05C6.64371 -0.00356417 4.83378 0.601147 3.34965 1.72195C1.86553 2.84275 0.788648 4.41815 0.283203 6.20794L31.954 37.4807Z" fill="#D9D9D9"/>
</svg>
