<svg width="75" height="75" viewBox="0 0 75 75" fill="none" xmlns="http://www.w3.org/2000/svg">
<path d="M26.127 2.46679C18.6334 5.06641 12.1708 10.0006 7.6887 16.5445C3.20656 23.0885 0.941047 30.8973 1.22494 38.824C1.50883 46.7507 4.32716 54.3774 9.26596 60.584C14.2048 66.7905 21.0037 71.2498 28.6641 73.3066C34.8746 74.9092 41.3814 74.9795 47.6251 73.5117C53.2812 72.2412 58.5105 69.5236 62.8009 65.625C67.2662 61.4434 70.5073 56.1239 72.1759 50.2383C73.9895 43.8379 74.3122 37.107 73.1192 30.5625H38.2442V45.0293H58.4415C58.0378 47.3366 57.1728 49.5388 55.8982 51.5041C54.6236 53.4693 52.9657 55.1573 51.0235 56.4668C48.5572 58.0982 45.777 59.1959 42.8614 59.6895C39.9373 60.2332 36.9379 60.2332 34.0138 59.6895C31.05 59.0767 28.2464 57.8535 25.7813 56.0977C21.8213 53.2945 18.8478 49.3121 17.2852 44.7187C15.6963 40.0394 15.6963 34.9664 17.2852 30.2871C18.3975 27.0071 20.2362 24.0207 22.6641 21.5508C25.4426 18.6723 28.9602 16.6148 32.8311 15.604C36.7019 14.5931 40.7764 14.6679 44.6075 15.8203C47.6003 16.739 50.3371 18.3442 52.5997 20.5078C54.877 18.2422 57.1505 15.9707 59.42 13.6934C60.5919 12.4687 61.8692 11.3027 63.0235 10.0488C59.5698 6.83482 55.5158 4.33392 51.0938 2.68945C43.0413 -0.234438 34.2304 -0.313015 26.127 2.46679Z" fill="white"/>
<path d="M26.127 2.4668C34.2297 -0.314895 43.0406 -0.238386 51.0937 2.6836C55.5165 4.33925 59.5687 6.85218 63.0176 10.0781C61.8457 11.332 60.6094 12.5039 59.4141 13.7227C57.1406 15.9922 54.8691 18.2539 52.5996 20.5078C50.337 18.3442 47.6002 16.739 44.6074 15.8203C40.7776 14.6639 36.7032 14.5847 32.8314 15.5915C28.9595 16.5982 25.4397 18.6519 22.6582 21.5274C20.2303 23.9973 18.3916 26.9837 17.2793 30.2637L5.13281 20.8594C9.48052 12.2377 17.0083 5.64272 26.127 2.4668Z" fill="#E33629"/>
<path d="M1.91014 30.1758C2.563 26.9402 3.64688 23.8068 5.1328 20.8594L17.2793 30.2871C15.6903 34.9664 15.6903 40.0394 17.2793 44.7187C13.2324 47.8437 9.18358 50.9844 5.1328 54.1406C1.41298 46.7362 0.278495 38.2998 1.91014 30.1758Z" fill="#F8BD00"/>
<path d="M38.2438 30.5566H73.1188C74.3118 37.1012 73.9891 43.832 72.1755 50.2324C70.5069 56.118 67.2658 61.4376 62.8005 65.6191C58.8805 62.5605 54.943 59.5254 51.0231 56.4668C52.9665 55.1559 54.6253 53.4662 55.8999 51.4988C57.1746 49.5315 58.0389 47.327 58.4411 45.0176H38.2438C38.238 40.2012 38.2438 35.3789 38.2438 30.5566Z" fill="#587DBD"/>
<path d="M5.12695 54.1406C9.17773 51.0156 13.2266 47.875 17.2734 44.7188C18.8391 49.3137 21.8168 53.2963 25.7812 56.0977C28.254 57.8453 31.0637 59.0586 34.0313 59.6602C36.9554 60.2039 39.9547 60.2039 42.8789 59.6602C45.7945 59.1666 48.5747 58.0689 51.041 56.4375C54.9609 59.4961 58.8984 62.5313 62.8184 65.5898C58.5287 69.4906 53.2993 72.2102 47.6426 73.4824C41.3989 74.9502 34.8921 74.8799 28.6816 73.2773C23.7697 71.9659 19.1817 69.6539 15.2051 66.4863C10.9961 63.1447 7.55833 58.9334 5.12695 54.1406Z" fill="#319F43"/>
</svg>
