<svg width="46" height="46" viewBox="0 0 46 46" fill="none" xmlns="http://www.w3.org/2000/svg">
<path d="M38.3331 32.5833C39.432 32.5833 40.3584 32.9666 41.1122 33.7333C41.8661 34.4999 42.2367 35.3944 42.2239 36.4166L26.8331 42.1666L13.4164 38.3333V21.0833H17.1539L31.0881 26.2391C32.0847 26.6352 32.5831 27.3508 32.5831 28.3858C32.5831 28.9863 32.3659 29.5102 31.9314 29.9574C31.497 30.4046 30.9475 30.641 30.2831 30.6666H24.9164L21.5622 29.3824L20.9297 31.1841L24.9164 32.5833H38.3331ZM30.6664 6.19075C32.0209 4.61909 33.7459 3.83325 35.8414 3.83325C37.5792 3.83325 39.0486 4.47214 40.2497 5.74992C41.4509 7.0277 42.0897 8.49714 42.1664 10.1583C42.1664 11.4744 41.5275 13.046 40.2497 14.8733C38.972 16.7005 37.7134 18.2274 36.4739 19.4541C35.2345 20.6808 33.2986 22.5016 30.6664 24.9166C28.0086 22.5016 26.0536 20.6808 24.8014 19.4541C23.5492 18.2274 22.2906 16.7005 21.0256 14.8733C19.7606 13.046 19.1409 11.4744 19.1664 10.1583C19.1664 8.42047 19.7861 6.95103 21.0256 5.74992C22.265 4.54881 23.76 3.90992 25.5106 3.83325C27.555 3.83325 29.2736 4.61909 30.6664 6.19075ZM1.88574 21.0833H9.58307V42.1666H1.88574V21.0833Z" fill="#D9D9D9"/>
</svg>
