<svg width="75" height="75" viewBox="0 0 75 75" fill="none" xmlns="http://www.w3.org/2000/svg">
<path d="M49.7906 51.5578C48.015 51.5985 46.24 51.4555 44.4937 51.1312C42.975 52.9125 40.7437 53.9062 37.5 53.9062C33.2953 53.9062 30.7875 52.2375 29.3438 49.3406C28.826 48.2766 28.466 47.1428 28.275 45.975C28.1878 45.4983 28.1376 45.0157 28.125 44.5312C28.125 43.9096 27.8781 43.3135 27.4385 42.874C26.999 42.4344 26.4029 42.1875 25.7812 42.1875H14.0625V25.7812C14.0625 23.9164 14.8033 22.128 16.1219 20.8094C17.4405 19.4908 19.2289 18.75 21.0938 18.75H24.4078C24.8734 17.1125 25.4875 15.55 26.25 14.0625H21.0938C17.9857 14.0625 15.005 15.2972 12.8073 17.4948C10.6097 19.6925 9.375 22.6732 9.375 25.7812V58.5938C9.375 61.7018 10.6097 64.6825 12.8073 66.8802C15.005 69.0778 17.9857 70.3125 21.0938 70.3125H53.9062C57.0143 70.3125 59.995 69.0778 62.1927 66.8802C64.3903 64.6825 65.625 61.7018 65.625 58.5938V45.6703C64.1791 46.8643 62.6073 47.897 60.9375 48.75V58.5938C60.9375 60.4586 60.1967 62.247 58.8781 63.5656C57.5595 64.8842 55.7711 65.625 53.9062 65.625H21.0938C19.2289 65.625 17.4405 64.8842 16.1219 63.5656C14.8033 62.247 14.0625 60.4586 14.0625 58.5938V46.875H23.6438L23.8078 47.6906C24.075 48.8719 24.5062 50.1469 25.1484 51.4406C27.3656 55.8703 31.4531 58.5938 37.5 58.5938C43.4953 58.5938 47.5641 55.9172 49.7906 51.5578ZM49.2188 46.875C54.8132 46.875 60.1784 44.6526 64.1343 40.6968C68.0901 36.7409 70.3125 31.3757 70.3125 25.7812C70.3125 20.1868 68.0901 14.8216 64.1343 10.8657C60.1784 6.90987 54.8132 4.6875 49.2188 4.6875C43.6243 4.6875 38.2591 6.90987 34.3032 10.8657C30.3474 14.8216 28.125 20.1868 28.125 25.7812C28.125 31.3757 30.3474 36.7409 34.3032 40.6968C38.2591 44.6526 43.6243 46.875 49.2188 46.875ZM38.1844 27.4406C37.7443 27.0005 37.497 26.4036 37.497 25.7812C37.497 25.1589 37.7443 24.562 38.1844 24.1219C38.6245 23.6818 39.2214 23.4345 39.8438 23.4345C40.4661 23.4345 41.063 23.6818 41.5031 24.1219L46.875 29.4984V16.4062C46.875 15.7846 47.1219 15.1885 47.5615 14.749C48.001 14.3094 48.5971 14.0625 49.2188 14.0625C49.8404 14.0625 50.4365 14.3094 50.876 14.749C51.3156 15.1885 51.5625 15.7846 51.5625 16.4062V29.4984L56.9344 24.1219C57.3745 23.6818 57.9714 23.4345 58.5938 23.4345C59.2161 23.4345 59.813 23.6818 60.2531 24.1219C60.6932 24.562 60.9405 25.1589 60.9405 25.7812C60.9405 26.4036 60.6932 27.0005 60.2531 27.4406L50.8781 36.8156C50.4412 37.2515 49.85 37.4974 49.2328 37.5H49.2047C48.5937 37.4962 48.0084 37.254 47.5734 36.825L47.5594 36.8109L38.1844 27.4406Z" fill="#FFA629"/>
</svg>
