<svg width="75" height="76" viewBox="0 0 75 76" fill="none" xmlns="http://www.w3.org/2000/svg">
<path d="M57.4219 0.0322266H17.5781C7.86999 0.0322266 0 7.90222 0 17.6104V57.4541C0 67.1622 7.86999 75.0322 17.5781 75.0322H57.4219C67.13 75.0322 75 67.1622 75 57.4541V17.6104C75 7.90222 67.13 0.0322266 57.4219 0.0322266Z" fill="url(#paint0_radial_2326_7431)"/>
<path d="M57.4219 0.0322266H17.5781C7.86999 0.0322266 0 7.90222 0 17.6104V57.4541C0 67.1622 7.86999 75.0322 17.5781 75.0322H57.4219C67.13 75.0322 75 67.1622 75 57.4541V17.6104C75 7.90222 67.13 0.0322266 57.4219 0.0322266Z" fill="url(#paint1_radial_2326_7431)"/>
<path d="M37.5026 8.23535C29.5462 8.23535 28.5475 8.27021 25.4227 8.4123C22.3037 8.55527 20.1747 9.04893 18.312 9.77344C16.3849 10.5217 14.7504 11.5228 13.1221 13.1517C11.4923 14.7803 10.4912 16.4147 9.74063 18.341C9.01406 20.2043 8.51982 22.3342 8.37949 25.4517C8.23975 28.5768 8.20312 29.5758 8.20312 37.5325C8.20312 45.4893 8.23828 46.4848 8.38008 49.6096C8.52363 52.7285 9.01729 54.8575 9.74121 56.7202C10.49 58.6474 11.4911 60.2818 13.12 61.9102C14.748 63.5399 16.3825 64.5434 18.3082 65.2916C20.1724 66.0161 22.3017 66.5098 25.42 66.6527C28.5451 66.7948 29.543 66.8297 37.4991 66.8297C45.4564 66.8297 46.452 66.7948 49.5768 66.6527C52.6957 66.5098 54.827 66.0161 56.6912 65.2916C58.6175 64.5434 60.2496 63.5399 61.8773 61.9102C63.5071 60.2818 64.5079 58.6474 65.2588 56.7211C65.9789 54.8575 66.4734 52.7279 66.6199 49.6102C66.7603 46.4854 66.7969 45.4893 66.7969 37.5325C66.7969 29.5758 66.7603 28.5773 66.6199 25.4522C66.4734 22.3333 65.9789 20.2046 65.2588 18.3419C64.5079 16.4147 63.5071 14.7803 61.8773 13.1517C60.2478 11.5222 58.6181 10.5211 56.6895 9.77373C54.8218 9.04893 52.6916 8.55498 49.5727 8.4123C46.4476 8.27021 45.4526 8.23535 37.4936 8.23535H37.5026ZM34.8744 13.5149C35.6546 13.5138 36.525 13.5149 37.5026 13.5149C45.3252 13.5149 46.2521 13.5431 49.3412 13.6834C52.1977 13.8141 53.748 14.2913 54.7808 14.6924C56.148 15.2232 57.1228 15.8581 58.1476 16.8838C59.173 17.9092 59.8075 18.8856 60.3398 20.2529C60.7409 21.2842 61.2188 22.8346 61.3488 25.691C61.4892 28.7795 61.5196 29.707 61.5196 37.5258C61.5196 45.3445 61.4892 46.2724 61.3488 49.3605C61.2182 52.217 60.7409 53.7674 60.3398 54.7989C59.809 56.1662 59.173 57.1397 58.1476 58.1646C57.1222 59.1899 56.1486 59.8245 54.7808 60.3557C53.7492 60.7585 52.1977 61.2346 49.3412 61.3652C46.2527 61.5056 45.3252 61.536 37.5026 61.536C29.6798 61.536 28.7525 61.5056 25.6644 61.3652C22.8079 61.2334 21.2575 60.7562 20.2239 60.3551C18.8569 59.8239 17.8802 59.1894 16.8548 58.164C15.8294 57.1386 15.1948 56.1645 14.6625 54.7966C14.2614 53.765 13.7836 52.2146 13.6535 49.3582C13.5132 46.2697 13.4851 45.3422 13.4851 37.5185C13.4851 29.6947 13.5132 28.7722 13.6535 25.6837C13.7842 22.8272 14.2614 21.2769 14.6625 20.2441C15.1937 18.8769 15.8294 17.9004 16.8551 16.875C17.8808 15.8496 18.8569 15.2147 20.2242 14.6827C21.2569 14.2799 22.8079 13.8038 25.6644 13.6726C28.367 13.5504 29.4144 13.5138 34.8744 13.5076V13.5149ZM53.1413 18.3794C51.2004 18.3794 49.6257 19.9526 49.6257 21.8938C49.6257 23.8348 51.2004 25.4095 53.1413 25.4095C55.0822 25.4095 56.6569 23.8348 56.6569 21.8938C56.6569 19.9529 55.0822 18.3782 53.1413 18.3782V18.3794ZM37.5026 22.4871C29.194 22.4871 22.4575 29.2236 22.4575 37.5325C22.4575 45.8414 29.194 52.5747 37.5026 52.5747C45.8115 52.5747 52.5457 45.8414 52.5457 37.5325C52.5457 29.2239 45.8109 22.4871 37.5021 22.4871H37.5026ZM37.5026 27.7667C42.8959 27.7667 47.2685 32.1387 47.2685 37.5325C47.2685 42.9258 42.8959 47.2983 37.5026 47.2983C32.1094 47.2983 27.7371 42.9258 27.7371 37.5325C27.7371 32.1387 32.1091 27.7667 37.5026 27.7667Z" fill="#FDC801"/>
<defs>
<radialGradient id="paint0_radial_2326_7431" cx="0" cy="0" r="1" gradientUnits="userSpaceOnUse" gradientTransform="translate(19.9219 80.8087) rotate(-90) scale(74.3306 69.1333)">
<stop offset="0.1"/>
</radialGradient>
<radialGradient id="paint1_radial_2326_7431" cx="0" cy="0" r="1" gradientUnits="userSpaceOnUse" gradientTransform="translate(-12.5628 5.43486) rotate(78.681) scale(33.2262 136.959)">
<stop offset="1"/>
</radialGradient>
</defs>
</svg>
