<svg width="75" height="75" viewBox="0 0 75 75" fill="none" xmlns="http://www.w3.org/2000/svg">
<path d="M37.4687 6.25C20.2187 6.25 6.25 20.25 6.25 37.5C6.25 54.75 20.2187 68.75 37.4687 68.75C54.75 68.75 68.75 54.75 68.75 37.5C68.75 20.25 54.75 6.25 37.4687 6.25ZM59.125 25H49.9063C48.9267 21.13 47.4785 17.3941 45.5938 13.875C51.2941 15.8375 56.0974 19.7866 59.125 25ZM37.5 12.625C40.0937 16.375 42.125 20.5313 43.4687 25H31.5313C32.875 20.5313 34.9063 16.375 37.5 12.625ZM13.3125 43.75C12.8125 41.75 12.5 39.6562 12.5 37.5C12.5 35.3438 12.8125 33.25 13.3125 31.25H23.875C23.625 33.3125 23.4375 35.375 23.4375 37.5C23.4375 39.625 23.625 41.6875 23.875 43.75H13.3125ZM15.875 50H25.0937C26.0937 53.9062 27.5312 57.6562 29.4062 61.125C23.7017 59.17 18.8961 55.2189 15.875 50ZM25.0937 25H15.875C18.8961 19.7811 23.7017 15.83 29.4062 13.875C27.5215 17.3941 26.0733 21.13 25.0937 25ZM37.5 62.375C34.9063 58.625 32.875 54.4687 31.5313 50H43.4687C42.125 54.4687 40.0937 58.625 37.5 62.375ZM44.8125 43.75H30.1875C29.9062 41.6875 29.6875 39.625 29.6875 37.5C29.6875 35.375 29.9062 33.2812 30.1875 31.25H44.8125C45.0938 33.2812 45.3125 35.375 45.3125 37.5C45.3125 39.625 45.0938 41.6875 44.8125 43.75ZM45.5938 61.125C47.4688 57.6562 48.9063 53.9062 49.9063 50H59.125C56.0974 55.2134 51.2941 59.1625 45.5938 61.125ZM51.125 43.75C51.375 41.6875 51.5625 39.625 51.5625 37.5C51.5625 35.375 51.375 33.3125 51.125 31.25H61.6875C62.1875 33.25 62.5 35.3438 62.5 37.5C62.5 39.6562 62.1875 41.75 61.6875 43.75H51.125Z" fill="black"/>
</svg>
