<svg width="1045" height="1051" viewBox="0 0 1045 1051" fill="none" xmlns="http://www.w3.org/2000/svg">
<path d="M997.499 191.091H811.362V47.7727C811.362 21.4977 789.885 0 763.635 0C737.385 0 715.908 21.4977 715.908 47.7727V191.091H529.772C501.613 191.091 479.658 215.455 482.045 243.641L487.772 301.446C663.408 342.053 811.362 466.74 811.362 668.818L812.317 1051H893.453C933.544 1051 966.476 1019.95 971.249 980.774L1044.75 243.641C1047.61 215.455 1025.66 191.091 997.499 191.091ZM668.181 955.455H47.7272C21.4772 955.455 0 976.952 0 1003.23C0 1029.5 21.4772 1051 47.7272 1051H668.181C694.431 1051 715.908 1029.5 715.908 1003.23C715.908 976.952 694.431 955.455 668.181 955.455ZM52.4999 668.818H663.408C692.999 668.818 716.385 642.065 710.658 613.402C679.635 459.096 518.795 381.704 357.954 381.704C197.113 381.704 36.7499 459.096 5.24999 613.402C-0.477271 642.065 23.3863 668.818 52.4999 668.818ZM668.181 764.364H47.7272C21.4772 764.364 0 785.861 0 812.136C0 838.411 21.4772 859.909 47.7272 859.909H668.181C694.431 859.909 715.908 838.411 715.908 812.136C715.908 785.861 694.431 764.364 668.181 764.364Z" fill="url(#paint0_linear_2819_3980)"/>
<defs>
<linearGradient id="paint0_linear_2819_3980" x1="522.5" y1="0" x2="522.5" y2="1051" gradientUnits="userSpaceOnUse">
<stop stop-color="#E3E3E3"/>
<stop offset="1" stop-color="#D9D9D9"/>
</linearGradient>
</defs>
</svg>
