<svg width="147" height="145" viewBox="0 0 147 145" fill="none" xmlns="http://www.w3.org/2000/svg">
<path d="M87.4771 25.3651C108.989 33.2819 118.83 50.0991 118.83 50.0991C120.302 42.3868 105.794 1.38189 105.794 1.38189C105.794 1.38189 90.9332 20.99 87.4771 25.3651Z" fill="black"/>
<path d="M116.246 41.5262C115.152 39.9258 107.955 16.9247 106.582 14.4871C102.088 6.50923 91.8409 23.4685 93.2217 22.9325C91.7427 24.4966 97.5572 24.679 105.551 30.7785C113.545 36.878 117.804 43.8048 116.246 41.5262Z" fill="#FDC801"/>
<path d="M59.0595 25.4008C37.5472 33.3177 27.7065 50.1349 27.7065 50.1349C26.2348 42.4226 40.7428 1.41766 40.7428 1.41766C40.7428 1.41766 55.6034 21.0258 59.0595 25.4008Z" fill="black"/>
<path d="M29.8703 41.5679C30.9647 39.9676 38.1611 16.9665 39.5342 14.5289C44.0281 6.55097 54.2753 23.5103 52.8945 22.9742C54.3735 24.5384 48.559 24.7208 40.5653 30.8202C32.5716 36.9197 28.3121 43.8466 29.8703 41.5679Z" fill="#FDC801"/>
<path d="M124.807 73.6694V73.6936L124.811 73.7174C126.99 84.8692 126.169 93.5444 123.4 100.313C120.632 107.08 115.909 111.963 110.244 115.516C98.9098 122.626 83.8296 124.397 73.1922 125.248C72.981 125.221 72.7676 125.194 72.5522 125.167C62.5012 123.895 47.9528 122.055 36.7822 115.196C31.0797 111.695 26.2659 106.89 23.3807 100.189C20.4951 93.487 19.5288 84.8654 21.5621 73.7143L21.5661 73.692V73.6694C21.5661 45.9715 44.6706 23.5059 73.1864 23.5059C101.702 23.5059 124.807 45.9715 124.807 73.6694Z" fill="#FDC801" stroke="black" stroke-width="0.5"/>
<path opacity="0.95" d="M33.6362 67.5345C33.6362 67.5345 37.9643 60.6423 47.4861 60.6423C57.0079 60.6423 63.0672 67.5345 63.0672 67.5345" stroke="black" stroke-width="0.2"/>
<path opacity="0.95" d="M84.3403 68.102C84.3403 68.102 88.6684 61.2098 98.1902 61.2098C107.712 61.2098 113.771 68.102 113.771 68.102" stroke="black" stroke-width="0.2"/>
<ellipse cx="54.993" cy="77.6953" rx="1.79327" ry="1.7429" fill="#FDC801"/>
<g filter="url(#filter0_i_2361_6771)">
<path d="M69.299 126.773C69.142 126.702 69.142 126.479 69.299 126.408L109.38 108.322C109.52 108.259 109.675 108.369 109.662 108.522L108.062 126.573C108.061 126.585 108.061 126.596 108.062 126.608L109.662 144.659C109.675 144.812 109.52 144.922 109.38 144.859L70.7925 127.447L69.299 126.773Z" fill="black"/>
</g>
<path d="M72.8181 126.774C72.657 126.705 72.657 126.476 72.8181 126.407L108.206 111.152C108.348 111.09 108.502 111.207 108.483 111.36L106.584 126.566C106.582 126.582 106.582 126.599 106.584 126.615L108.483 141.821C108.502 141.974 108.348 142.091 108.206 142.029L74.0728 127.315L72.8181 126.774Z" fill="#FDC801"/>
<g filter="url(#filter1_i_2361_6771)">
<path d="M74.6076 126.776C74.4394 126.709 74.4394 126.471 74.6076 126.405L105.892 113.966C106.031 113.911 106.179 114.021 106.165 114.17L105.031 126.572C105.03 126.584 105.03 126.597 105.031 126.609L106.165 139.011C106.179 139.16 106.031 139.27 105.892 139.215L75.6311 127.183L74.6076 126.776Z" fill="black"/>
</g>
<g filter="url(#filter2_i_2361_6771)">
<path d="M77.8172 126.408C77.9742 126.479 77.9742 126.702 77.8172 126.773L37.736 144.859C37.5966 144.922 37.441 144.812 37.4545 144.659L39.0546 126.608C39.0557 126.597 39.0557 126.585 39.0546 126.573L37.4545 108.522C37.441 108.369 37.5966 108.259 37.736 108.322L76.3237 125.734L77.8172 126.408Z" fill="black"/>
</g>
<path d="M74.2981 126.407C74.4592 126.476 74.4592 126.705 74.2981 126.774L38.9107 142.029C38.7687 142.091 38.6139 141.974 38.6331 141.821L40.5324 126.615C40.5344 126.599 40.5344 126.582 40.5324 126.566L38.6331 111.36C38.6139 111.207 38.7687 111.09 38.9107 111.152L73.0435 125.866L74.2981 126.407Z" fill="#FDC801"/>
<g filter="url(#filter3_i_2361_6771)">
<path d="M72.5086 126.405C72.6768 126.472 72.6768 126.71 72.5087 126.776L41.2241 139.215C41.0855 139.27 40.9375 139.16 40.9511 139.011L42.0854 126.609C42.0865 126.597 42.0865 126.584 42.0854 126.572L40.9511 114.17C40.9375 114.021 41.0855 113.911 41.2241 113.966L71.4852 125.998L72.5086 126.405Z" fill="black"/>
</g>
<g filter="url(#filter4_i_2361_6771)">
<g filter="url(#filter5_i_2361_6771)">
<rect x="66.5645" y="116.111" width="3.49687" height="20.9585" rx="1.74844" fill="black"/>
</g>
<g filter="url(#filter6_i_2361_6771)">
<path d="M70.0615 117.86C70.0615 116.894 70.8443 116.111 71.81 116.111V116.111C72.7756 116.111 73.5584 116.894 73.5584 117.86V135.321C73.5584 136.287 72.7756 137.07 71.81 137.07V137.07C70.8443 137.07 70.0615 136.287 70.0615 135.321V117.86Z" fill="black"/>
</g>
<g filter="url(#filter7_i_2361_6771)">
<rect x="73.5581" y="116.111" width="3.49687" height="20.9585" rx="1.74844" fill="black"/>
</g>
<g filter="url(#filter8_i_2361_6771)">
<rect x="77.0552" y="116.111" width="3.49687" height="20.9585" rx="1.74844" fill="black"/>
</g>
</g>
<path opacity="0.95" d="M58.7497 101.753C58.7497 101.753 63.5724 104.449 68.0007 101.581C72.429 98.7135 72.4372 92.8888 72.4372 92.8888" stroke="black" stroke-width="0.2"/>
<path opacity="0.95" d="M88.3699 101.753C88.3699 101.753 83.5472 104.449 79.1189 101.581C74.6906 98.7135 74.6824 92.8888 74.6824 92.8888" stroke="black" stroke-width="0.2"/>
<path d="M66.3221 94.3694C46.1602 83.8393 5.61328 93.7013 5.61328 93.7013" stroke="black" stroke-width="0.8"/>
<path d="M66.3223 97.0288C45.3657 89.499 1.07204 102.136 1.07204 102.136" stroke="black" stroke-width="0.8"/>
<path d="M68.4756 94.007C50.8217 76.9395 8.27274 85.3737 8.27274 85.3737" stroke="black" stroke-width="0.8"/>
<path d="M80.6779 94.3694C100.84 83.8393 141.387 93.7013 141.387 93.7013" stroke="black" stroke-width="0.8"/>
<path d="M80.6777 97.0288C101.634 89.499 145.928 102.136 145.928 102.136" stroke="black" stroke-width="0.8"/>
<path d="M78.5244 94.007C96.1783 76.9395 138.727 85.3737 138.727 85.3737" stroke="black" stroke-width="0.8"/>
<g filter="url(#filter9_i_2361_6771)">
<path d="M67.7673 82.854C67.4912 85.5897 72.1782 89.4894 73.5583 89.4894C74.9384 89.4894 79.3756 85.5897 79.2376 82.854C79.0996 80.1183 75.2966 78.373 73.5024 82.0663C71.5702 78.2363 68.0433 80.1183 67.7673 82.854Z" fill="black"/>
</g>
<ellipse cx="49.011" cy="72.3076" rx="8.86108" ry="8.78379" fill="black"/>
<ellipse cx="8.86108" cy="8.78379" rx="8.86108" ry="8.78379" transform="matrix(-1 0 0 1 106.34 63.5238)" fill="black"/>
<ellipse cx="50.9583" cy="70.4157" rx="3.4236" ry="3.37838" fill="#FDC801"/>
<ellipse cx="3.4236" cy="3.37838" rx="3.4236" ry="3.37838" transform="matrix(-1 0 0 1 100.836 67.0374)" fill="#FDC801"/>
<rect x="32.9999" y="69.1476" width="34.6" height="10.8476" rx="5.42381" fill="#E8E6E6" fill-opacity="0.6" stroke="black" stroke-width="0.2"/>
<path opacity="0.95" d="M82.3747 75.9355C84.1832 76.9036 78.8579 73.5431 74.3722 73.5431C69.8865 73.5431 65.7133 76.733 66.995 75.9355" stroke="black" stroke-width="0.2"/>
<rect x="80.85" y="69.1476" width="34.6" height="10.8476" rx="5.42381" fill="#D9D9D9" fill-opacity="0.6" stroke="black" stroke-width="0.2"/>
<defs>
<filter id="filter0_i_2361_6771" x="69.1812" y="108.304" width="40.4814" height="40.5736" filterUnits="userSpaceOnUse" color-interpolation-filters="sRGB">
<feFlood flood-opacity="0" result="BackgroundImageFix"/>
<feBlend mode="normal" in="SourceGraphic" in2="BackgroundImageFix" result="shape"/>
<feColorMatrix in="SourceAlpha" type="matrix" values="0 0 0 0 0 0 0 0 0 0 0 0 0 0 0 0 0 0 127 0" result="hardAlpha"/>
<feOffset dy="4"/>
<feGaussianBlur stdDeviation="2"/>
<feComposite in2="hardAlpha" operator="arithmetic" k2="-1" k3="1"/>
<feColorMatrix type="matrix" values="0 0 0 0 0 0 0 0 0 0 0 0 0 0 0 0 0 0 0.25 0"/>
<feBlend mode="normal" in2="shape" result="effect1_innerShadow_2361_6771"/>
</filter>
<filter id="filter1_i_2361_6771" x="74.4814" y="113.951" width="31.6846" height="29.2781" filterUnits="userSpaceOnUse" color-interpolation-filters="sRGB">
<feFlood flood-opacity="0" result="BackgroundImageFix"/>
<feBlend mode="normal" in="SourceGraphic" in2="BackgroundImageFix" result="shape"/>
<feColorMatrix in="SourceAlpha" type="matrix" values="0 0 0 0 0 0 0 0 0 0 0 0 0 0 0 0 0 0 127 0" result="hardAlpha"/>
<feOffset dy="4"/>
<feGaussianBlur stdDeviation="2"/>
<feComposite in2="hardAlpha" operator="arithmetic" k2="-1" k3="1"/>
<feColorMatrix type="matrix" values="0 0 0 0 0 0 0 0 0 0 0 0 0 0 0 0 0 0 0.25 0"/>
<feBlend mode="normal" in2="shape" result="effect1_innerShadow_2361_6771"/>
</filter>
<filter id="filter2_i_2361_6771" x="37.4536" y="108.304" width="40.4814" height="40.5736" filterUnits="userSpaceOnUse" color-interpolation-filters="sRGB">
<feFlood flood-opacity="0" result="BackgroundImageFix"/>
<feBlend mode="normal" in="SourceGraphic" in2="BackgroundImageFix" result="shape"/>
<feColorMatrix in="SourceAlpha" type="matrix" values="0 0 0 0 0 0 0 0 0 0 0 0 0 0 0 0 0 0 127 0" result="hardAlpha"/>
<feOffset dy="4"/>
<feGaussianBlur stdDeviation="2"/>
<feComposite in2="hardAlpha" operator="arithmetic" k2="-1" k3="1"/>
<feColorMatrix type="matrix" values="0 0 0 0 0 0 0 0 0 0 0 0 0 0 0 0 0 0 0.25 0"/>
<feBlend mode="normal" in2="shape" result="effect1_innerShadow_2361_6771"/>
</filter>
<filter id="filter3_i_2361_6771" x="40.9502" y="113.952" width="31.6846" height="29.2781" filterUnits="userSpaceOnUse" color-interpolation-filters="sRGB">
<feFlood flood-opacity="0" result="BackgroundImageFix"/>
<feBlend mode="normal" in="SourceGraphic" in2="BackgroundImageFix" result="shape"/>
<feColorMatrix in="SourceAlpha" type="matrix" values="0 0 0 0 0 0 0 0 0 0 0 0 0 0 0 0 0 0 127 0" result="hardAlpha"/>
<feOffset dy="4"/>
<feGaussianBlur stdDeviation="2"/>
<feComposite in2="hardAlpha" operator="arithmetic" k2="-1" k3="1"/>
<feColorMatrix type="matrix" values="0 0 0 0 0 0 0 0 0 0 0 0 0 0 0 0 0 0 0.25 0"/>
<feBlend mode="normal" in2="shape" result="effect1_innerShadow_2361_6771"/>
</filter>
<filter id="filter4_i_2361_6771" x="66.5645" y="116.111" width="13.9878" height="24.9585" filterUnits="userSpaceOnUse" color-interpolation-filters="sRGB">
<feFlood flood-opacity="0" result="BackgroundImageFix"/>
<feBlend mode="normal" in="SourceGraphic" in2="BackgroundImageFix" result="shape"/>
<feColorMatrix in="SourceAlpha" type="matrix" values="0 0 0 0 0 0 0 0 0 0 0 0 0 0 0 0 0 0 127 0" result="hardAlpha"/>
<feOffset dy="4"/>
<feGaussianBlur stdDeviation="2"/>
<feComposite in2="hardAlpha" operator="arithmetic" k2="-1" k3="1"/>
<feColorMatrix type="matrix" values="0 0 0 0 0 0 0 0 0 0 0 0 0 0 0 0 0 0 0.25 0"/>
<feBlend mode="normal" in2="shape" result="effect1_innerShadow_2361_6771"/>
</filter>
<filter id="filter5_i_2361_6771" x="66.5645" y="116.111" width="3.49707" height="24.9585" filterUnits="userSpaceOnUse" color-interpolation-filters="sRGB">
<feFlood flood-opacity="0" result="BackgroundImageFix"/>
<feBlend mode="normal" in="SourceGraphic" in2="BackgroundImageFix" result="shape"/>
<feColorMatrix in="SourceAlpha" type="matrix" values="0 0 0 0 0 0 0 0 0 0 0 0 0 0 0 0 0 0 127 0" result="hardAlpha"/>
<feOffset dy="4"/>
<feGaussianBlur stdDeviation="2"/>
<feComposite in2="hardAlpha" operator="arithmetic" k2="-1" k3="1"/>
<feColorMatrix type="matrix" values="0 0 0 0 0 0 0 0 0 0 0 0 0 0 0 0 0 0 0.25 0"/>
<feBlend mode="normal" in2="shape" result="effect1_innerShadow_2361_6771"/>
</filter>
<filter id="filter6_i_2361_6771" x="70.0615" y="116.111" width="3.49707" height="24.9585" filterUnits="userSpaceOnUse" color-interpolation-filters="sRGB">
<feFlood flood-opacity="0" result="BackgroundImageFix"/>
<feBlend mode="normal" in="SourceGraphic" in2="BackgroundImageFix" result="shape"/>
<feColorMatrix in="SourceAlpha" type="matrix" values="0 0 0 0 0 0 0 0 0 0 0 0 0 0 0 0 0 0 127 0" result="hardAlpha"/>
<feOffset dy="4"/>
<feGaussianBlur stdDeviation="2"/>
<feComposite in2="hardAlpha" operator="arithmetic" k2="-1" k3="1"/>
<feColorMatrix type="matrix" values="0 0 0 0 0 0 0 0 0 0 0 0 0 0 0 0 0 0 0.25 0"/>
<feBlend mode="normal" in2="shape" result="effect1_innerShadow_2361_6771"/>
</filter>
<filter id="filter7_i_2361_6771" x="73.5581" y="116.111" width="3.49707" height="24.9585" filterUnits="userSpaceOnUse" color-interpolation-filters="sRGB">
<feFlood flood-opacity="0" result="BackgroundImageFix"/>
<feBlend mode="normal" in="SourceGraphic" in2="BackgroundImageFix" result="shape"/>
<feColorMatrix in="SourceAlpha" type="matrix" values="0 0 0 0 0 0 0 0 0 0 0 0 0 0 0 0 0 0 127 0" result="hardAlpha"/>
<feOffset dy="4"/>
<feGaussianBlur stdDeviation="2"/>
<feComposite in2="hardAlpha" operator="arithmetic" k2="-1" k3="1"/>
<feColorMatrix type="matrix" values="0 0 0 0 0 0 0 0 0 0 0 0 0 0 0 0 0 0 0.25 0"/>
<feBlend mode="normal" in2="shape" result="effect1_innerShadow_2361_6771"/>
</filter>
<filter id="filter8_i_2361_6771" x="77.0552" y="116.111" width="3.49707" height="24.9585" filterUnits="userSpaceOnUse" color-interpolation-filters="sRGB">
<feFlood flood-opacity="0" result="BackgroundImageFix"/>
<feBlend mode="normal" in="SourceGraphic" in2="BackgroundImageFix" result="shape"/>
<feColorMatrix in="SourceAlpha" type="matrix" values="0 0 0 0 0 0 0 0 0 0 0 0 0 0 0 0 0 0 127 0" result="hardAlpha"/>
<feOffset dy="4"/>
<feGaussianBlur stdDeviation="2"/>
<feComposite in2="hardAlpha" operator="arithmetic" k2="-1" k3="1"/>
<feColorMatrix type="matrix" values="0 0 0 0 0 0 0 0 0 0 0 0 0 0 0 0 0 0 0.25 0"/>
<feBlend mode="normal" in2="shape" result="effect1_innerShadow_2361_6771"/>
</filter>
<filter id="filter9_i_2361_6771" x="67.7554" y="79.9008" width="11.4854" height="13.5886" filterUnits="userSpaceOnUse" color-interpolation-filters="sRGB">
<feFlood flood-opacity="0" result="BackgroundImageFix"/>
<feBlend mode="normal" in="SourceGraphic" in2="BackgroundImageFix" result="shape"/>
<feColorMatrix in="SourceAlpha" type="matrix" values="0 0 0 0 0 0 0 0 0 0 0 0 0 0 0 0 0 0 127 0" result="hardAlpha"/>
<feOffset dy="4"/>
<feGaussianBlur stdDeviation="2"/>
<feComposite in2="hardAlpha" operator="arithmetic" k2="-1" k3="1"/>
<feColorMatrix type="matrix" values="0 0 0 0 0 0 0 0 0 0 0 0 0 0 0 0 0 0 0.25 0"/>
<feBlend mode="normal" in2="shape" result="effect1_innerShadow_2361_6771"/>
</filter>
</defs>
</svg>
