<svg width="75" height="75" viewBox="0 0 75 75" fill="none" xmlns="http://www.w3.org/2000/svg">
<path d="M25.3124 41.6875L12.2186 28.625C9.87903 26.2763 8.56543 23.0963 8.56543 19.7812C8.56543 16.4662 9.87903 13.2862 12.2186 10.9375L34.1561 32.8125L25.3124 41.6875ZM46.4998 36.0312L41.9061 40.625L63.4061 62.125L58.9998 66.5313L37.4998 45.0312L15.9998 66.5313L11.5936 62.125L42.0936 31.625C39.8748 26.8437 41.4373 20.125 46.4061 15.1562C52.3748 9.15625 60.9373 8.03125 65.4998 12.5937C70.0936 17.1875 68.9686 25.75 62.9686 31.7187C57.9998 36.6875 51.2811 38.25 46.4998 36.0312Z" fill="#FFA629"/>
</svg>
