<svg width="75" height="75" viewBox="0 0 75 75" fill="none" xmlns="http://www.w3.org/2000/svg">
<path d="M51.9227 0.542306C39.4756 0.542306 29.3852 6.10673 29.3852 12.9808C29.3852 19.8548 39.4785 25.4221 51.9227 25.4221C64.3698 25.4221 74.4602 19.8548 74.4602 12.9808C74.4602 6.10673 64.3669 0.542306 51.9227 0.542306ZM74.4602 16.676C74.4544 23.55 64.3698 29.1173 51.9227 29.1173C39.5102 29.1173 29.4429 23.6106 29.3852 16.7683V21.6346C29.3852 24.5712 31.266 27.2596 34.3468 29.3885C37.4621 30.2365 40.2371 31.4135 42.5477 32.9019C45.4121 33.6288 48.5621 34.0731 51.9227 34.0731C64.3698 34.0731 74.4602 28.5087 74.4602 21.6346V16.676ZM74.4602 25.3298C74.4602 32.2038 64.3698 37.7712 51.9227 37.7712C50.4083 37.7712 48.9371 37.6587 47.5064 37.5C48.6354 39.0205 49.4056 40.7769 49.7593 42.6375C50.4775 42.6779 51.1871 42.7269 51.9227 42.7269C64.3698 42.7269 74.4602 37.1625 74.4602 30.2885V25.3298ZM23.0766 32.2702C10.6294 32.2702 0.539062 37.8375 0.539062 44.7115C0.539062 51.5856 10.6323 57.1529 23.0766 57.1529C35.5237 57.1529 45.6141 51.5856 45.6141 44.7115C45.6141 37.8375 35.5208 32.2702 23.0766 32.2702ZM74.4602 33.9837C74.4544 40.8577 64.3698 46.425 51.9227 46.425C51.1987 46.425 50.466 46.3731 49.7593 46.3327C49.7275 46.549 49.7102 46.8375 49.6698 47.0538C49.8141 47.4894 49.9381 47.9192 49.9381 48.4096V51.2942C50.5929 51.326 51.2506 51.3808 51.9227 51.3808C64.3698 51.3808 74.4602 45.8163 74.4602 38.9423V33.9837ZM74.4602 42.6375C74.4544 49.5115 64.3698 55.0788 51.9227 55.0788C51.1987 55.0788 50.466 55.0269 49.7593 54.9865C49.7275 55.2029 49.7102 55.4913 49.6698 55.7077C49.8141 56.1404 49.9381 56.5731 49.9381 57.0635V59.9481C50.5929 59.9798 51.2506 60.0346 51.9227 60.0346C64.3698 60.0346 74.4602 54.4702 74.4602 47.5962V42.6375ZM45.6141 48.4067C45.6083 55.2808 35.5237 60.8481 23.0766 60.8481C10.6641 60.8481 0.596755 55.3413 0.539062 48.4962V53.3654C0.539062 60.2394 10.6266 65.8067 23.0766 65.8067C35.5266 65.8067 45.6141 60.2394 45.6141 53.3654V48.4067ZM45.6141 57.0606C45.6083 63.9346 35.5237 69.5019 23.0766 69.5019C10.6641 69.5019 0.596755 63.9952 0.539062 57.15V62.0192C0.539062 68.8933 10.6266 74.4606 23.0766 74.4606C35.5266 74.4606 45.6141 68.8933 45.6141 62.0192V57.0606Z" fill="#FFA629"/>
</svg>
