<svg width="513" height="275" viewBox="0 0 513 275" fill="none" xmlns="http://www.w3.org/2000/svg">
<path d="M266.55 30.7V275H217.55V116.1L152.1 275H115L49.1998 116.1V275H0.199807V30.7H55.8498L133.55 212.35L211.25 30.7H266.55ZM339.845 58C331.211 58 323.978 55.3167 318.145 49.95C312.545 44.35 309.745 37.4667 309.745 29.3C309.745 21.1333 312.545 14.3666 318.145 8.99998C323.978 3.39999 331.211 0.599986 339.845 0.599986C348.478 0.599986 355.595 3.39999 361.195 8.99998C367.028 14.3666 369.945 21.1333 369.945 29.3C369.945 37.4667 367.028 44.35 361.195 49.95C355.595 55.3167 348.478 58 339.845 58ZM363.995 81.1V275H314.995V81.1H363.995ZM469.457 121.35V215.15C469.457 221.683 470.974 226.467 474.007 229.5C477.274 232.3 482.64 233.7 490.107 233.7H512.857V275H482.057C440.757 275 420.107 254.933 420.107 214.8V121.35H397.007V81.1H420.107V33.15H469.457V81.1H512.857V121.35H469.457Z" fill="black"/>
</svg>
