<svg width="75" height="75" viewBox="0 0 75 75" fill="none" xmlns="http://www.w3.org/2000/svg">
<path fill-rule="evenodd" clip-rule="evenodd" d="M25.7812 4.6875C25.4132 4.68748 25.0504 4.77411 24.7221 4.94039C24.3938 5.10667 24.1093 5.34792 23.8916 5.64461C23.6738 5.9413 23.529 6.28509 23.4689 6.64815C23.4087 7.0112 23.4349 7.38332 23.5453 7.73438L24.0609 9.375H16.4062C15.7846 9.375 15.1885 9.62193 14.749 10.0615C14.3094 10.501 14.0625 11.0972 14.0625 11.7188V67.9688C14.0625 68.5904 14.3094 69.1865 14.749 69.626C15.1885 70.0656 15.7846 70.3125 16.4062 70.3125H58.5938C59.2154 70.3125 59.8115 70.0656 60.251 69.626C60.6906 69.1865 60.9375 68.5904 60.9375 67.9688V11.7188C60.9375 11.0972 60.6906 10.501 60.251 10.0615C59.8115 9.62193 59.2154 9.375 58.5938 9.375H50.9438L51.4594 7.73438C51.5699 7.38294 51.596 7.01041 51.5356 6.64699C51.4752 6.28357 51.33 5.93951 51.1117 5.64272C50.8935 5.34593 50.6083 5.10477 50.2794 4.9388C49.9505 4.77284 49.5872 4.68674 49.2188 4.6875H25.7812ZM28.9687 9.375H46.0312L44.5641 14.0625H30.4359L28.9687 9.375ZM51.5625 32.8125H23.4375V28.125H51.5625V32.8125ZM51.5625 44.5313H23.4375V39.8438H51.5625V44.5313ZM23.4375 56.25H42.1875V51.5625H23.4375V56.25Z" fill="#FFA629"/>
</svg>
