<svg width="75" height="75" viewBox="0 0 75 75" fill="none" xmlns="http://www.w3.org/2000/svg">
<path d="M25.7814 49.2188L49.2189 25.7812M36.6471 7.03125L44.9346 12L54.558 12.8484L58.3408 21.7406L65.6252 28.0781L63.4596 37.5L65.6252 46.9172L58.3408 53.2594L54.558 62.1516L44.9346 63L36.6471 67.9688L28.3643 63L18.7361 62.1516L14.958 53.2594L7.66895 46.9172L9.83457 37.5L7.66895 28.0828L14.958 21.7406L18.7361 12.8484L28.3643 12L36.6471 7.03125ZM32.8127 30.4688C32.8127 31.712 32.3188 32.9042 31.4398 33.7833C30.5607 34.6624 29.3684 35.1562 28.1252 35.1562C26.882 35.1562 25.6897 34.6624 24.8106 33.7833C23.9316 32.9042 23.4377 31.712 23.4377 30.4688C23.4377 29.2255 23.9316 28.0333 24.8106 27.1542C25.6897 26.2751 26.882 25.7812 28.1252 25.7812C29.3684 25.7812 30.5607 26.2751 31.4398 27.1542C32.3188 28.0333 32.8127 29.2255 32.8127 30.4688ZM51.5627 46.875C51.5627 48.1182 51.0688 49.3105 50.1898 50.1896C49.3107 51.0686 48.1184 51.5625 46.8752 51.5625C45.632 51.5625 44.4397 51.0686 43.5606 50.1896C42.6816 49.3105 42.1877 48.1182 42.1877 46.875C42.1877 45.6318 42.6816 44.4395 43.5606 43.5604C44.4397 42.6814 45.632 42.1875 46.8752 42.1875C48.1184 42.1875 49.3107 42.6814 50.1898 43.5604C51.0688 44.4395 51.5627 45.6318 51.5627 46.875Z" stroke="#FFA629" stroke-width="4.6875"/>
</svg>
