<svg width="46" height="46" viewBox="0 0 46 46" fill="none" xmlns="http://www.w3.org/2000/svg">
<path d="M22.9981 2.57552e-08C18.639 0.00883871 14.3727 1.25904 10.6985 3.60425L11.5688 4.86369C15.0024 2.68622 18.9811 1.53006 23.0459 1.53006C25.6569 1.53006 28.2488 2.00629 30.6877 2.93772L31.2902 1.53102C28.6595 0.518864 25.8647 -0.000133492 23.0459 2.57552e-08H22.9981ZM32.8779 2.21094L32.2754 3.61764C37.4687 6.09539 41.4474 10.5574 43.3125 15.9987L44.7758 15.5588C43.3985 9.32382 39.4198 4.33199 32.8779 2.21094ZM22.9885 3.34701C19.3158 3.35753 15.7101 4.40084 12.6018 6.35837L22.8642 21.1818C25.8482 15.8457 28.0958 10.2801 29.9704 4.60931C27.761 3.77447 25.4082 3.34701 23.0459 3.34701H22.9885ZM25.8004 4.20098L27.6271 6.48268L26.2882 7.55851L24.4614 5.27585L25.8004 4.20098ZM9.28298 4.58349C2.11747 8.43447 0.535548 14.2678 0.206539 20.6558L1.7349 20.7515C2.34605 14.832 5.39608 9.42901 10.1533 5.84197L9.28298 4.58349ZM19.8132 5.25959C20.5974 5.25959 21.3243 5.46232 21.9077 5.85249C22.4912 6.2417 22.9598 6.8805 22.9598 7.65031C22.9598 8.42491 22.4912 9.05606 21.9077 9.44814C21.3243 9.84022 20.5974 10.041 19.8132 10.041C19.0289 10.041 18.302 9.84022 17.7186 9.44814C17.1352 9.05606 16.6666 8.42491 16.6666 7.65031C16.6666 6.8805 17.1352 6.2417 17.7186 5.85249C18.302 5.46232 19.0289 5.25959 19.8132 5.25959ZM31.558 5.28923C29.8078 10.9591 27.5698 16.429 24.5666 21.593L31.099 19.6422C30.7929 19.1736 30.6207 18.5998 30.6207 17.9974C30.6207 16.5629 31.625 15.2432 33.0501 15.2432C34.4751 15.2432 35.4794 16.5629 35.4794 17.9974C35.4794 18.1121 35.4698 18.2269 35.4602 18.3512L41.5718 16.5247C39.8598 11.5998 36.2541 7.55277 31.558 5.28923ZM19.8132 6.98091C19.335 6.98091 18.9237 7.11862 18.675 7.2831C18.4264 7.44662 18.3881 7.57477 18.3881 7.65031C18.3881 7.72586 18.4264 7.854 18.675 8.01753C18.9237 8.18583 19.335 8.31972 19.8132 8.31972C20.2914 8.31972 20.7027 8.18583 20.9513 8.01753C21.2 7.854 21.2382 7.72586 21.2382 7.65031C21.2382 7.57477 21.2 7.44662 20.9513 7.2831C20.7027 7.11862 20.2914 6.98091 19.8132 6.98091ZM11.1863 7.33665C6.88619 10.6052 4.12309 15.5014 3.55019 20.8662C9.54121 20.9236 15.5188 21.0384 21.3339 21.9755L19.5071 19.3362L17.7377 20.302L16.9152 18.7911L18.522 17.9113L13.0704 10.0602L10.8611 11.8102L9.78988 10.4522L12.0853 8.63529L11.1863 7.33665ZM33.5283 8.65442L34.6951 10.5766L33.2222 11.4755L32.0554 9.55333L33.5283 8.65442ZM23.3424 10.8634L24.0884 12.4126L21.2 13.7801L20.454 12.2309L23.3424 10.8634ZM10.3637 12.9099C11.9897 12.9099 13.1947 14.4017 13.1947 16.0657C13.1947 17.7296 11.9897 19.2214 10.3637 19.2214C8.73782 19.2214 7.53273 17.7296 7.53273 16.0657C7.53273 14.4017 8.73782 12.9099 10.3637 12.9099ZM38.8651 13.7993L39.219 16.4386L37.5165 16.6681L37.1627 14.0288L38.8651 13.7993ZM10.3637 14.6312C9.81858 14.6312 9.25429 15.1954 9.25429 16.0657C9.25429 16.9359 9.81858 17.5001 10.3637 17.5001C10.9089 17.5001 11.4732 16.9359 11.4732 16.0657C11.4732 15.1954 10.9089 14.6312 10.3637 14.6312ZM33.0501 16.9646C32.744 16.9646 32.3423 17.3375 32.3423 17.9974C32.3423 18.6572 32.744 19.0302 33.0501 19.0302C33.3561 19.0302 33.7578 18.6572 33.7578 17.9974C33.7578 17.3375 33.3561 16.9646 33.0501 16.9646ZM45.2731 17.2132L43.8002 17.6435C44.2402 19.3744 44.4697 21.1627 44.4697 22.9509C44.4697 27.4551 43.0542 31.8444 40.4145 35.4975L41.6196 36.4442C44.4697 32.5234 46 27.7993 46 22.9509C46 21.0192 45.7609 19.0875 45.2731 17.2132ZM42.0595 18.1695L30.1999 21.7173L31.1563 22.3963L30.1617 23.7925L28.1149 22.3389L24.8822 23.3048C29.1957 27.4072 34.2265 30.7351 38.9799 34.369C41.2562 31.0411 41.983 27.0439 42.6525 22.9509C42.9108 21.3539 42.4517 19.7282 42.0595 18.1695ZM0.0984637 22.3772C0.0888995 22.5684 0.0984637 22.7597 0.0888995 22.9509C-0.396963 29.6737 0.955417 36.2147 7.98607 40.2789L8.94823 39.0835C4.29237 35.0193 1.62109 29.1381 1.62204 22.9509V22.4728L0.0984637 22.3772ZM3.44307 22.5875V22.9509C3.44307 25.0548 3.77973 27.1395 4.44253 29.1381L5.49364 26.8909L7.0526 27.6176L5.31861 31.328C6.46058 33.7474 8.08363 35.8991 10.0864 37.6682L21.3243 23.7064L8.97692 22.9318L6.62413 25.2747L5.40756 24.0507L6.67195 22.7884L3.44307 22.5875ZM38.5973 23.8403C38.8173 23.8307 39.0373 23.8594 39.2572 23.9359C39.9459 24.1463 40.4336 24.7105 40.6632 25.3512C40.8927 25.9728 40.8927 26.6805 40.6727 27.3786C40.4623 28.0671 40.0415 28.6504 39.5059 29.0425C38.9512 29.4155 38.2339 29.6067 37.5357 29.3868C37.287 29.3103 37.067 29.1859 36.8757 29.0329L36.1297 29.884L33.49 27.6081L34.6186 26.3075L36.0054 27.5029C35.9098 26.996 35.948 26.4605 36.1106 25.9441C36.3306 25.246 36.7418 24.6723 37.287 24.2897C37.6696 24.022 38.1287 23.8498 38.5973 23.8403ZM13.6251 24.3662L16.4657 25.4373L15.8536 27.0439L13.013 25.9728L13.6251 24.3662ZM24.0214 24.8061L24.5283 32.8963C24.9874 32.992 25.4082 33.145 25.7813 33.3649C26.4221 33.7379 26.9672 34.3786 26.9672 35.1914C26.9672 36.0043 26.4221 36.645 25.7813 37.018C25.4848 37.1901 25.1596 37.324 24.8153 37.4196L25.1309 42.4401C26.1925 42.3254 27.235 42.1245 28.2584 41.8472L28.5931 39.0644L30.2956 39.2748L30.0565 41.2543C33.0979 40.0972 35.795 38.1942 37.9182 35.727C35.9384 34.1682 33.5761 33.0589 31.9693 31.0507L31.2807 32.9728L29.6548 32.3991L30.5347 29.9223C27.8376 28.5835 26.1543 26.537 24.0214 24.8061ZM22.3286 25.2173L11.4254 38.7393C14.792 41.2161 18.8663 42.5549 23.0459 42.5549H23.4093L23.0937 37.563C22.4051 37.5152 21.7738 37.3335 21.2478 37.018C20.607 36.645 20.0619 36.0043 20.0619 35.1914C20.0619 34.3786 20.607 33.7379 21.2478 33.3649C21.6973 33.0972 22.2329 32.925 22.8068 32.8485L22.3286 25.2173ZM38.6451 25.5616C38.5495 25.552 38.4347 25.5903 38.2817 25.6859C38.0808 25.8294 37.8704 26.1067 37.7556 26.4605C37.6504 26.8143 37.6696 27.1586 37.7461 27.3881C37.8322 27.6176 37.9469 27.7133 38.0521 27.7419C38.1669 27.7802 38.3104 27.7611 38.5112 27.6272C38.7025 27.4933 38.9225 27.216 39.0373 26.8622C39.1425 26.5083 39.1233 26.1545 39.0468 25.9346C38.9607 25.7051 38.846 25.6094 38.7408 25.5712C38.7121 25.5616 38.6834 25.5616 38.6451 25.5616ZM10.5933 28.4209C11.0045 28.4305 11.4158 28.5261 11.7984 28.7078C13.1661 29.3676 13.8355 31.0125 13.1756 32.3799C12.5157 33.757 10.8133 34.2638 9.44557 33.604C8.07598 32.9442 7.41222 31.3089 8.07024 29.9318C8.54653 28.9469 9.55078 28.4114 10.5933 28.4209ZM10.5072 30.1327C10.1246 30.1422 9.78032 30.3431 9.61773 30.6778C9.38819 31.1655 9.60816 31.7775 10.1916 32.0548C10.775 32.3321 11.3871 32.1217 11.6262 31.634C11.8558 31.1559 11.6358 30.5439 11.0524 30.2665C10.8706 30.1709 10.6794 30.1327 10.5072 30.1327ZM23.5145 34.522C22.9407 34.522 22.4242 34.675 22.1182 34.8472C21.8121 35.0289 21.7834 35.1628 21.7834 35.1914C21.7834 35.2201 21.8121 35.354 22.1182 35.5357C22.4242 35.7078 22.9407 35.8608 23.5145 35.8608C24.0884 35.8608 24.6049 35.7078 24.9109 35.5357C25.217 35.354 25.2457 35.2201 25.2457 35.1914C25.2457 35.1628 25.217 35.0289 24.9109 34.8472C24.6049 34.675 24.0884 34.522 23.5145 34.522ZM39.3433 36.8554C35.7663 41.0439 30.7259 43.6928 25.2457 44.2571L25.3413 45.7871C31.4624 46.1027 37.2583 44.7065 40.5484 37.8021L39.3433 36.8554ZM15.8249 37.1423L18.5124 37.3909L18.3594 39.1122L15.6719 38.8636L15.8249 37.1423ZM10.2872 40.1546L9.3308 41.3499C12.7835 45.6532 17.9577 46.294 23.0459 45.9019C23.2372 45.8828 23.4285 45.9019 23.6197 45.8923L23.5241 44.3623C23.3615 44.3718 23.2085 44.3718 23.0459 44.3718C18.4551 44.3718 13.979 42.8896 10.2872 40.1546Z" fill="url(#paint0_linear_2850_4797)"/>
<defs>
<linearGradient id="paint0_linear_2850_4797" x1="23" y1="0" x2="23" y2="46" gradientUnits="userSpaceOnUse">
<stop stop-color="#E3E3E3"/>
</linearGradient>
</defs>
</svg>
