<svg width="75" height="75" viewBox="0 0 75 75" fill="none" xmlns="http://www.w3.org/2000/svg">
<path fill-rule="evenodd" clip-rule="evenodd" d="M75 10.5902C75 4.74141 70.2586 0 64.4098 0H10.5902C4.74141 0 0 4.74141 0 10.5902V64.4098C0 70.2587 4.74141 75 10.5902 75H64.4098C70.2586 75 75 70.2587 75 64.4098V10.5902ZM62.1337 32.7109C57.2947 32.765 52.7858 31.3021 48.827 28.5927V47.6122C48.827 56.0652 43.0407 63.3265 34.8586 65.2229C23.696 67.7696 14.2463 59.696 13.0545 50.0509C11.8082 40.4055 17.9597 31.9523 27.3881 30.0558C29.2304 29.6766 32.0015 29.6766 33.4311 30.0017V40.1887C32.9912 40.0806 32.5793 39.9721 32.1458 39.9179C28.4611 39.2676 24.8923 41.1099 23.4292 44.4695C21.9663 47.8293 22.9455 51.7305 25.9257 54.0067C28.4182 55.9572 31.1837 56.228 34.0013 54.9275C36.8192 53.6814 38.3335 51.4056 38.6585 48.317C38.7127 47.8837 38.7097 47.3958 38.7097 46.9081V10.3318C38.7097 9.30234 38.7177 9.34725 39.7473 9.34725H47.821C48.4173 9.34725 48.6341 9.43303 48.6882 10.1378C49.1214 16.4235 53.8938 21.7766 60.0168 22.5895C60.6671 22.6978 61.3639 22.7407 62.1337 22.7948V32.7109Z" fill="black"/>
</svg>
