<svg width="106" height="75" viewBox="0 0 106 75" fill="none" xmlns="http://www.w3.org/2000/svg">
<path d="M103.377 11.5927C102.771 9.35178 101.588 7.30886 99.9464 5.6674C98.3048 4.02593 96.2618 2.84322 94.0208 2.23707C85.8167 0 52.8012 0 52.8012 0C52.8012 0 19.7844 0.0678879 11.5816 2.30496C9.3408 2.91121 7.29793 4.09396 5.65647 5.73542C4.01501 7.37688 2.83225 9.41975 2.22601 11.6606C-0.255459 26.2371 -1.21817 48.4468 2.29389 62.4394C2.90014 64.6803 4.0829 66.7231 5.72436 68.3646C7.36582 70.006 9.40869 71.1888 11.6495 71.795C19.8529 74.0321 52.8691 74.0321 52.8691 74.0321C52.8691 74.0321 85.8853 74.0321 94.0887 71.795C96.3295 71.1888 98.3724 70.006 100.014 68.3646C101.655 66.7231 102.838 64.6803 103.444 62.4394C106.061 47.8429 106.868 25.6468 103.376 11.5933" fill="black"/>
<path d="M42.2925 52.8801L69.6817 37.0163L42.2925 21.1519V52.8801Z" fill="#FDC801"/>
</svg>
